<?xml version="1.0" encoding="utf-8"?>
<!-- Generator: Adobe Illustrator 16.0.3, SVG Export Plug-In . SVG Version: 6.00 Build 0)  -->
<!DOCTYPE svg PUBLIC "-//W3C//DTD SVG 1.1//EN" "http://www.w3.org/Graphics/SVG/1.1/DTD/svg11.dtd">
<svg version="1.1" id="Layer_1" xmlns="http://www.w3.org/2000/svg" xmlns:xlink="http://www.w3.org/1999/xlink" x="0px" y="0px"
	 width="250px" height="120px" viewBox="0 0 250 120" enable-background="new 0 0 250 120" xml:space="preserve">
<g>
	<path fill="#C23930" d="M92.813,66.559c0-0.277,0-0.663-0.36-0.663c-0.247,0-1.163,0.337-2.126,0.614l-0.486-0.776
		c1.765-0.645,4.553-1.311,5.987-1.413c0.116-1.096,0.208-2.18,0.271-3.25c0.723-12.355-3.919-22.607-16.746-23.975
		c-10.281-1.1-14.972,4.791-31.009,5.138c-8.199,0.175-12.768-8.907-22.095-8.907c-10.334,0-27.451,4.887-26.233,30.553
		c1.427,30.145,19.039,55.023,28.67,55.563c8.024,0.444,7.439-5.44,12.069-4.761c4.636,0.688,6.105,6.173,15.343,5.205
		C64.53,119,72,114.05,78.141,106.937c0.583-4.912,1.399-12.3,1.399-13.081c0-0.447,0-1.076-0.583-1.076
		c-0.296,0-0.74,0.123-1.574,0.365c-0.009,0.169-0.028,0.333-0.083,0.577c-3.945,3.631-8.564,6.276-12.734,9.505
		c0.09,2.467,0.987,5.291,3.99,5.291c2.198,0,4.485-1.794,6.144-3.139l0.762,1.211c-2.555,2.869-6.412,4.395-10.268,4.395
		c-4.932,0-7.487-2.377-7.487-7.354c0-7.982,5.918-13.451,13.81-13.451c4.125,0,4.125,1.882,4.125,2.869v0.403
		c0.218-0.156,0.394-0.286,0.551-0.401l-0.283-0.943c3.319-1.21,7.264-1.928,9.551-1.928c0.493,0,0.583,0.09,0.583,0.672
		c0,0.901-0.107,2.818-0.26,4.987c3.332-6.017,5.949-12.645,7.727-19.267h-1.8C92.012,74.254,92.813,67.165,92.813,66.559z
		 M83.177,43.25c5.557,1.742,5.887,12.286,5.887,12.286s-2.419-0.025-4.156-0.435c-3.109-0.734-4.329-1.706-4.329-1.706
		c-2.497-7.076-9.757-7.743-9.938-7.791C70.641,45.604,79.331,42.048,83.177,43.25z M58.983,81.772
		c-0.09,1.529-0.045,2.169-0.808,2.169c-0.672,0-0.852-0.246-0.941-1.182c-0.179-1.727-3.317-2.714-5.784-2.714
		c-8.563,0-13.496,8.878-13.496,17.312c0,6.018,2.87,11.542,9.057,11.542c2.869,0,7.623-1.679,8.563-5.13
		c0.135-0.592,0.315-0.987,0.942-0.987c0.493,0,0.717,0.345,0.717,0.89c0,0.641-0.269,1.922-0.537,4.684
		c-3.768,1.925-8.071,2.861-12.242,2.861c-7.98,0-13.899-3.503-13.899-13.02c0-8.436,5.156-20.469,20.805-20.469
		c2.511,0,5.29,0.443,7.801,1.381L58.983,81.772z M77.513,61.923c-0.413,0-0.524-0.14-0.579-0.663
		c-0.11-0.966-2.042-1.518-3.56-1.518c-5.27,0-8.305,4.967-8.305,9.684c0,3.367,1.766,6.458,5.573,6.458
		c1.766,0,4.69-0.938,5.27-2.87c0.083-0.33,0.193-0.552,0.58-0.552c0.304,0,0.442,0.193,0.442,0.496
		c0,0.359-0.166,1.077-0.332,2.621c-2.317,1.077-4.966,1.601-7.532,1.601c-4.912,0-8.553-1.958-8.553-7.283
		c0-4.719,3.173-11.451,12.802-11.451c1.546,0,3.256,0.248,4.802,0.772l-0.11,1.49C77.954,61.563,77.982,61.923,77.513,61.923z
		 M82.792,77.098c-3.034,0-4.828-1.353-4.828-4.305c0-4.553,2.98-8.498,7.919-8.498c3.034,0,4.828,1.352,4.828,4.305
		C90.711,73.152,87.731,77.098,82.792,77.098z"/>
	<path fill="#C23930" d="M69.363,91.882c-3.364,0-4.933,6.638-4.933,9.417l6.097-4.438c0.27-0.896,0.404-1.839,0.404-2.825
		C70.932,93.004,70.663,91.882,69.363,91.882z"/>
	<path fill="#C23930" d="M84.889,65.343c-2.565,0-2.924,4.939-2.924,6.733c0,1.158,0.083,3.974,1.821,3.974
		c2.565,0,2.925-4.939,2.925-6.706C86.711,68.158,86.628,65.343,84.889,65.343z"/>
	<path fill="#C23930" d="M65.856,16.958l-1.136-3.693c-9.517,4.407-13.103,20.979-15.058,26.001l2.094-0.178
		C51.757,39.088,57.758,18.38,65.856,16.958z"/>
	<path fill="#C23930" d="M26.08,19.031c1.397-0.875,3.647-2.083,5.091-1.793c2.599,0.515,8.395,6.566,8.395,6.566
		s-5.685-2.183-7.599-2.474c-2.054-0.305-3.44,0.917-4.233,1.97c0.355,0.535,0.763,1.07,1.244,1.602
		c7.299,8.085,17.014,13.456,17.014,13.456s4.448-14.307,2.795-21.014c-0.52-2.113-1.061-3.927-1.818-5.537
		c-1.107,0.994-2.496,2.386-3.104,3.577c-1.083,2.128-2.075,6.701-2.075,6.701s-0.867-5.196-0.171-9.878
		c0.359-2.412,1.014-4.214,1.527-5.358C40.356,4.505,36.07,2.423,29.073,0C29.744,6.373,25.131,12.776,26.08,19.031z M40.121,31.736
		c-1.038,1.042-4.477-2.2-4.477-2.2s1.912,0.424,3.235,0.106c1.03-0.25,1.904-1.854,1.904-1.854S41.161,30.695,40.121,31.736z
		 M44.777,34.258c0,0-1.46-0.515-2.502-1.385c-1.038-0.867,0.215-5.61,0.215-5.61s2.009,2.048,2.877,3.09
		C46.232,31.39,44.777,34.258,44.777,34.258z M45.526,26.565c1.458,0,2.023-0.797,2.023-0.797s0.346,3.07-1.384,3.07
		c-1.739,0-2.6-2.728-2.6-2.728S44.212,26.565,45.526,26.565z M41.993,22.767c1.562,0.173,2.146,0.817,1.389,2.078
		c-1.042,1.732-3.816,1.905-3.816,1.905S40.433,22.592,41.993,22.767z M31.436,3.884c0,0,3.475,2.102,6.21,7.402
		c2.604,5.025,2.516,11.24,2.516,11.24s-2.584-3.698-6.082-7.01C30.789,12.395,31.436,3.884,31.436,3.884z"/>
	<path fill="#C23930" d="M99.683,76.877c1.268,0,4.294-0.896,5.307-1.502c-0.027-0.103-0.044-0.206-0.044-0.319
		c0-0.001,0.001-0.003,0.001-0.004l-0.16-0.384c-1.048,0.415-1.297,0.47-1.489,0.47c-0.359,0-0.469-0.248-0.469-0.55
		c0-0.719,0.828-6.099,0.828-7.756c0-1.489-0.469-2.537-2.041-2.537c-2.401,0-4.277,3.117-4.995,4.746l-0.055-0.057
		c0.139-1.792,0.248-3.558,0.248-4.275c0-0.359-0.055-0.414-0.358-0.414c-0.19,0-0.403,0.01-0.627,0.025
		c-0.427,3.979-1.21,8.115-2.319,12.252h1.87c0.524-4.026,1.628-7.09,2.374-8.194c0.772-1.131,1.048-1.462,1.461-1.462
		c0.497,0,0.58,0.469,0.58,0.91c0,0.855-0.828,6.539-0.828,7.975C98.965,76.27,99.103,76.877,99.683,76.877z"/>
	<path fill="#C23930" d="M104.989,75.375c0.376,1.385,3.18,1.723,4.261,1.723c4.139,0,5.767-2.373,5.767-4.029
		c0-3.559-5.077-4.139-5.077-6.537c0-0.829,0.746-1.381,1.518-1.381c0.166,0,0.331,0.027,0.524,0.055c0,0.966,1.104,1.49,1.932,1.49
		c0.579,0,1.352-0.248,1.352-0.938c0-1.268-2.759-1.462-3.726-1.462c-3.117,0-5.27,1.573-5.27,3.696
		c0,3.174,4.746,3.477,4.746,6.263c0,1.298-0.828,1.877-1.986,1.877c-0.276,0-0.441-0.054-0.689-0.192
		c-0.029-1.104-1.076-1.903-2.125-1.903c-0.633,0-1.267,0.33-1.269,1.017l0.116,0.28C105.041,75.346,105.014,75.359,104.989,75.375z
		"/>
	<path fill="#C23930" d="M120.484,77.098c2.373,0,4.746-0.938,6.319-2.705l-0.47-0.744c-1.021,0.828-2.428,1.931-3.78,1.931
		c-1.849,0-2.4-1.737-2.456-3.255c2.566-1.986,5.408-3.615,7.836-5.85c0.027-0.121,0.041-0.21,0.049-0.293
		c-0.136,0.039-0.279,0.08-0.444,0.128l-0.113-0.375c-0.125,0.093-0.287,0.213-0.512,0.375v-0.249c0-0.606,0-1.766-2.538-1.766
		c-4.856,0-8.499,3.366-8.499,8.278C115.876,75.636,117.449,77.098,120.484,77.098z M123.051,65.343c0.799,0,0.966,0.69,0.966,1.325
		c0,0.606-0.083,1.187-0.249,1.737l-3.753,2.732C120.015,69.426,120.981,65.343,123.051,65.343z"/>
	<path fill="#C23930" d="M131.815,62.473c1.13,0,2.427-1.129,2.427-2.289c0-0.938-0.69-1.627-1.627-1.627
		c-1.133,0-2.429,1.13-2.429,2.288C130.187,61.783,130.876,62.473,131.815,62.473z"/>
	<path fill="#C23930" d="M127.989,65.896c0,0.112,0,0.197-0.007,0.286c0.652-0.191,0.979-0.286,1.184-0.286
		c0.358,0,0.358,0.386,0.358,0.663c0,1.488-1.049,7.255-1.049,8.359c0,0.634,0,2.18,0.828,2.18c1.462,0,3.586-0.69,5.326-1.519
		l-0.249-0.772c-0.856,0.304-1.491,0.525-1.684,0.525c-0.358,0-0.358-0.47-0.358-0.828c0-2.262,1.186-7.284,1.186-9.795
		c0-0.359-0.055-0.414-0.358-0.414c-1.406,0-3.834,0.441-5.877,1.187l0.136,0.453c0.262-0.194,0.353-0.26,0.426-0.26
		C127.989,65.675,127.989,65.784,127.989,65.896z"/>
	<path fill="#C23930" d="M138.105,58.721c0.33,0,0.33,0.275,0.33,0.581c0,4.192-1.6,12.94-1.6,15.947
		c0,0.414,0.055,1.849,0.828,1.849c0.744,0,3.973-1.076,5.38-1.96l-0.332-0.827C142.354,74.504,141.36,75,141.057,75
		c-0.358,0-0.358-0.496-0.358-0.799c0-0.939,1.877-14.403,1.877-16.666c0-0.414-0.083-0.414-0.332-0.414
		c-1.903,0.055-4.028,0.496-5.987,1.186l0.248,0.801C137.471,58.805,137.856,58.721,138.105,58.721z"/>
	<path fill="#C23930" d="M156.08,77.098c4.139,0,5.767-2.373,5.767-4.029c0-3.559-5.076-4.139-5.076-6.537
		c0-0.829,0.745-1.381,1.518-1.381c0.166,0,0.331,0.027,0.523,0.055c0,0.966,1.104,1.49,1.932,1.49c0.579,0,1.353-0.248,1.353-0.938
		c0-1.268-2.759-1.462-3.726-1.462c-3.116,0-5.27,1.573-5.27,3.696c0,3.174,4.746,3.477,4.746,6.263
		c0,1.298-0.828,1.877-1.987,1.877c-0.275,0-0.44-0.054-0.689-0.192c-0.027-1.104-1.076-1.903-2.124-1.903
		c-0.636,0-1.271,0.33-1.271,1.021C151.775,76.71,154.922,77.098,156.08,77.098z"/>
	<path fill="#C23930" d="M167.463,77.098c2.206,0,4.689-0.802,6.234-2.346l-0.553-0.801c-0.965,0.828-2.453,1.628-3.835,1.628
		c-1.793,0-2.317-2.097-2.317-3.53c0-2.152,1.131-6.044,3.449-6.789c0.221,1.021,1.215,1.711,2.234,1.711
		c0.717,0,1.491-0.412,1.491-1.214c0-1.214-1.987-1.462-2.815-1.462c-4.855,0-8.498,3.366-8.498,8.278
		C162.854,75.636,164.427,77.098,167.463,77.098z"/>
	<path fill="#C23930" d="M179.381,77.098c4.939,0,7.92-3.945,7.92-8.498c0-2.953-1.795-4.305-4.828-4.305
		c-4.939,0-7.92,3.945-7.92,8.498C174.553,75.745,176.348,77.098,179.381,77.098z M181.479,65.343c1.738,0,1.82,2.815,1.82,4.001
		c0,1.767-0.359,6.706-2.925,6.706c-1.737,0-1.821-2.815-1.821-3.974C178.553,70.282,178.912,65.343,181.479,65.343z"/>
	<path fill="#C23930" d="M189.782,58.721c0.332,0,0.332,0.275,0.332,0.581c0,4.192-1.601,12.94-1.601,15.947
		c0,0.414,0.055,1.849,0.828,1.849c0.745,0,3.973-1.076,5.38-1.96l-0.331-0.827c-0.357,0.193-1.353,0.689-1.656,0.689
		c-0.358,0-0.358-0.496-0.358-0.799c0-0.939,1.876-14.403,1.876-16.666c0-0.414-0.082-0.414-0.33-0.414
		c-1.903,0.055-4.028,0.496-5.987,1.186l0.248,0.801C189.148,58.805,189.535,58.721,189.782,58.721z"/>
	<path fill="#C23930" d="M198.121,77.098c2.483,0,4.414-2.676,5.408-4.662l0.055,0.054c-0.138,1.546-0.193,2.346-0.193,2.925
		c0,0.497-0.027,1.684,0.719,1.684c1.462,0,3.586-0.69,5.324-1.519l-0.249-0.772c-0.854,0.304-1.489,0.525-1.682,0.525
		c-0.358,0-0.358-0.47-0.358-0.828c0-3.919,0.303-5.961,1.351-10.678c-1.075,0.055-1.351,0.248-1.351,0.745v0.387
		c-1.822-0.469-2.264-0.469-3.643-0.469c-4.774,0-8.195,4.495-8.195,8.828C195.307,75.028,196.134,77.098,198.121,77.098z
		 M203.915,65.536c0.138,0,0.304,0.028,0.44,0.083c-0.358,2.565-0.578,4.14-1.24,5.849c-0.359,0.94-1.436,3.009-2.649,3.009
		c-0.883,0-1.021-1.463-1.021-2.068C199.445,69.952,200.88,65.536,203.915,65.536z"/>
	<path fill="#C23930" d="M211.723,65.896c0.359,0,0.359,0.386,0.359,0.663c0,1.488-1.048,7.255-1.048,8.359
		c0,0.634,0,2.18,0.827,2.18c1.463,0,3.587-0.69,5.326-1.519l-0.249-0.772c-0.855,0.304-1.49,0.525-1.683,0.525
		c-0.359,0-0.359-0.47-0.359-0.828c0-2.262,1.187-7.284,1.187-9.795c0-0.359-0.057-0.414-0.358-0.414
		c-1.408,0-3.836,0.441-5.879,1.187l0.25,0.828C211.062,66.033,211.476,65.896,211.723,65.896z"/>
	<path fill="#C23930" d="M214.372,62.473c1.132,0,2.428-1.129,2.428-2.289c0-0.938-0.689-1.627-1.627-1.627
		c-1.132,0-2.429,1.13-2.429,2.288C212.744,61.783,213.435,62.473,214.372,62.473z"/>
	<path fill="#C23930" d="M220.215,65.896c0.359,0,0.359,0.386,0.359,0.663c0,0.606-0.801,7.695-1.105,10.014h3.671
		c0.635-5.27,2.317-8.884,3.862-10.209c0.579,0.305,0.967,0.441,1.463,0.441c0.772,0,1.545-0.468,1.545-1.296
		c0-0.745-0.607-1.214-1.324-1.214c-2.29,0-4.112,3.449-4.773,5.381l-0.055-0.057c0.496-3.145,0.716-4.496,0.716-4.91
		c0-0.359-0.054-0.414-0.357-0.414c-1.407,0-3.834,0.441-5.877,1.187l0.247,0.828C219.553,66.033,219.967,65.896,220.215,65.896z"/>
	<path fill="#C23930" d="M232.266,77.098c2.373,0,4.746-0.938,6.318-2.705l-0.47-0.744c-1.02,0.828-2.428,1.931-3.779,1.931
		c-1.849,0-2.4-1.737-2.456-3.255c2.566-1.986,5.408-3.615,7.837-5.85c0.055-0.249,0.055-0.358,0.055-0.579
		c0-0.111,0-0.221-0.139-0.221c-0.109,0-0.248,0.138-0.937,0.635v-0.249c0-0.606,0-1.766-2.54-1.766
		c-4.855,0-8.498,3.366-8.498,8.278C227.657,75.636,229.23,77.098,232.266,77.098z M234.832,65.343c0.801,0,0.966,0.69,0.966,1.325
		c0,0.606-0.083,1.187-0.25,1.737l-3.752,2.732C231.796,69.426,232.763,65.343,234.832,65.343z"/>
	<path fill="#C23930" d="M77.746,110.132h5.964c0.851-6.546,2.645-11.523,3.855-13.317c1.256-1.838,1.703-2.376,2.376-2.376
		c0.807,0,0.942,0.763,0.942,1.48c0,1.39-1.345,10.626-1.345,12.957c0,0.763,0.224,1.748,1.165,1.748
		c2.108,0,7.22-1.522,8.744-2.509l-0.448-1.077c-1.704,0.672-2.107,0.762-2.421,0.762c-0.583,0-0.762-0.403-0.762-0.896
		c0-1.168,1.345-9.909,1.345-12.6c0-2.423-0.763-4.125-3.318-4.125c-3.9,0-6.949,5.066-8.115,7.713l-0.09-0.092
		c0.051-0.663,0.1-1.323,0.144-1.962c-2.236,4.038-4.796,7.8-7.641,11.098C77.986,108.227,77.849,109.348,77.746,110.132z"/>
	<path fill="#C23930" d="M112.985,91.986l0.137-0.955h-3.99l0.851-5.83h-1.255c-3.586,4.08-5.246,5.83-6.726,5.83h-1.301
		l-0.224,1.568h2.242c-1.121,5.74-1.972,11.659-1.972,14.394c0,2.51,0.718,3.991,3.452,3.991c2.646,0,6.053-1.302,8.25-2.736
		l-0.628-1.3c-1.614,0.762-2.689,1.167-3.317,1.167c-1.211,0-1.256-1.347-1.256-2.244c0-1.075,0.627-7.486,1.659-13.271h3.868
		l-0.147-0.492C112.744,92.064,112.866,92.027,112.985,91.986z"/>
	<path fill="#C23930" d="M131.594,92.151c0-1.209-0.986-1.972-2.152-1.972c-3.722,0-6.681,5.604-7.757,8.743l-0.09-0.09
		c0.807-5.111,1.166-7.309,1.166-7.981c0-0.582-0.089-0.672-0.583-0.672c-2.207,0-5.952,0.672-9.193,1.807l-0.087,0.613h-0.122
		l0.256,0.853c1.569-0.448,2.241-0.673,2.646-0.673c0.583,0,0.583,0.629,0.583,1.076c0,0.987-1.301,12.511-1.794,16.276h5.964
		c1.031-8.563,3.767-14.438,6.277-16.589c0.941,0.492,1.568,0.717,2.375,0.717C130.339,94.26,131.594,93.498,131.594,92.151z"/>
	<path fill="#C23930" d="M139.886,108.518c-3.005,0-3.901-2.824-3.991-5.291c4.17-3.229,8.789-5.874,12.733-9.505
		c0.09-0.404,0.09-0.583,0.09-0.942c0-0.18,0-0.357-0.225-0.357c-0.18,0-0.403,0.223-1.524,1.03v-0.403c0-0.987,0-2.869-4.124-2.869
		c-7.892,0-13.81,5.469-13.81,13.451c0,4.977,2.555,7.354,7.486,7.354c3.856,0,7.713-1.525,10.268-4.395l-0.762-1.211
		C144.369,106.724,142.082,108.518,139.886,108.518z M140.692,91.882c1.3,0,1.569,1.122,1.569,2.153
		c0,0.986-0.135,1.929-0.404,2.825l-6.098,4.438C135.76,98.52,137.33,91.882,140.692,91.882z"/>
	<path fill="#C23930" d="M160.346,97.309c-0.088,0-0.628,0.359-2.555,0.359h-7.309c-1.794,3.139-2.376,3.854-2.376,4.124
		c0,0.225,0.044,0.314,0.179,0.314c0.089,0,0.628-0.359,2.556-0.359h7.309c1.839-3.093,2.377-3.854,2.377-4.124
		C160.526,97.397,160.481,97.309,160.346,97.309z"/>
	<path fill="#C23930" d="M192.158,81.66h-9.057l-0.226,1.704h2.107c1.212,0,1.435,0.089,1.435,1.479
		c0,2.557-1.255,11.255-1.793,15.604L170.188,81.66h-9.773l-0.225,1.704h1.479c1.436,0,3.272,2.467,3.272,3.228
		c0,2.197-3.184,18.428-3.451,21.163c-0.045,0.673-0.538,0.673-1.346,0.673h-1.435l-0.224,1.704h9.639l0.224-1.704h-2.554
		c-1.167-0.045-1.437-0.135-1.437-1.479c0-2.378,1.615-13.048,2.556-18.294l15.291,19.908c0.402,0.494,1.613,2.287,2.285,2.287
		c0.583,0,0.764-0.449,0.808-0.986l3.632-25.693c0.135-0.717,0.18-0.806,1.165-0.806h1.839L192.158,81.66z"/>
	<path fill="#C23930" d="M203.927,90.18c-8.026,0-12.868,6.411-12.868,13.809c0,4.799,2.914,6.996,7.846,6.996
		c8.027,0,12.868-6.414,12.868-13.811C211.772,92.376,208.859,90.18,203.927,90.18z M200.52,109.28
		c-2.824,0-2.959-4.575-2.959-6.457c0-2.915,0.583-10.941,4.754-10.941c2.823,0,2.958,4.575,2.958,6.503
		C205.272,101.254,204.689,109.28,200.52,109.28z"/>
	<path fill="#C23930" d="M230.293,92.151c0-1.209-0.985-1.972-2.152-1.972c-3.721,0-6.68,5.604-7.756,8.743l-0.09-0.09
		c0.808-5.111,1.166-7.309,1.166-7.981c0-0.582-0.09-0.672-0.582-0.672c-2.287,0-6.232,0.718-9.552,1.928l0.403,1.345
		c1.57-0.448,2.242-0.673,2.646-0.673c0.582,0,0.582,0.629,0.582,1.076c0,0.987-1.3,12.511-1.793,16.276h5.964
		c1.03-8.563,3.767-14.438,6.277-16.589c0.94,0.492,1.568,0.717,2.375,0.717C229.038,94.26,230.293,93.498,230.293,92.151z"/>
	<path fill="#C23930" d="M249.644,107.262c-1.392,0.493-2.422,0.854-2.735,0.854c-0.583,0-0.583-0.763-0.583-1.347
		c0-2.151,3.094-23.448,3.094-27.575c0-0.671-0.136-0.671-0.537-0.671c-3.096,0.089-6.547,0.806-9.73,1.928l0.403,1.3
		c1.569-0.493,2.198-0.629,2.601-0.629c0.537,0,0.537,0.449,0.537,0.943c0,1.479-0.044,3.541-0.673,8.43h-1.613
		c-7.756,0-13.315,7.307-13.315,14.346c0,2.78,1.345,6.145,4.572,6.145c4.036,0,7.174-4.351,8.788-7.578l0.09,0.09
		c-0.225,2.51-0.313,3.812-0.313,4.752c0,0.809-0.045,2.736,1.165,2.736c2.377,0,5.829-1.121,8.654-2.467L249.644,107.262z
		 M239.778,101.837c-0.583,1.524-2.331,4.887-4.305,4.887c-1.435,0-1.657-2.376-1.657-3.362c0-3.991,2.331-11.164,7.263-11.164
		c0.225,0,0.494,0.044,0.718,0.133C241.214,96.501,240.856,99.058,239.778,101.837z"/>
</g>
</svg>
