<svg version="1.2" xmlns="http://www.w3.org/2000/svg" viewBox="0 0 1146 313" width="250" height="68">
	<title>exgen_logo-svg</title>
	<defs>
		<clipPath clipPathUnits="userSpaceOnUse" id="cp1">
			<path d="m0 0h1146v313h-1146z"/>
		</clipPath>
		<linearGradient id="g1" x1="1.7" y1="1.7" x2="1.7" y2="311.3" gradientUnits="userSpaceOnUse">
			<stop offset="0" stop-color="#3177ee"/>
			<stop offset="1" stop-color="#113d8a"/>
		</linearGradient>
		<linearGradient id="g2" x1="1.7" y1="1.7" x2="1.7" y2="311.3" gradientUnits="userSpaceOnUse">
			<stop offset="0" stop-color="#3177ee"/>
			<stop offset="1" stop-color="#113d8a"/>
		</linearGradient>
		<linearGradient id="g3" x1="1.7" y1="1.7" x2="1.7" y2="311.3" gradientUnits="userSpaceOnUse">
			<stop offset="0" stop-color="#3177ee"/>
			<stop offset="1" stop-color="#113d8a"/>
		</linearGradient>
		<linearGradient id="g4" x1="1.7" y1="1.7" x2="1.7" y2="311.3" gradientUnits="userSpaceOnUse">
			<stop offset="0" stop-color="#3177ee"/>
			<stop offset="1" stop-color="#113d8a"/>
		</linearGradient>
	</defs>
	<style>
		.s0 { fill: none } 
		.s1 { fill: url(#g1) } 
		.s2 { fill: url(#g2) } 
		.s3 { fill: url(#g3) } 
		.s4 { fill: url(#g4) } 
		.s5 { fill: none;stroke: #1c4587;stroke-linejoin: round;stroke-width: 3 } 
	</style>
	<g id="Clip-Path" clip-path="url(#cp1)">
		<g id="Layer">
			<path id="Layer" class="s0" d="m0 0h1146v313h-1146z"/>
			<path id="Layer" fill-rule="evenodd" class="s1" d="m1.7 1.7v6.9q10.4 0.4 15.7 2.6 5.4 2.3 7.1 8.3 1.8 6.1 1.8 18.8v171.4q0 12.4-1.8 18.7-1.7 6.2-6.9 8.3-5.2 2-15.9 2.7v6.9q15.2-0.3 32.3-0.5 17.2-0.1 33.9-0.3 16.8-0.2 31.1-0.2h23.6q17.4 0 39.5 0.2 22.1 0.2 39.7 0.8-1.7-17.2-2.1-33.3-0.4-16.1-0.4-24.7 0-19.3 1.1-31.8h-7.9q-5.6 31.1-16.3 49.1-10.7 17.9-23.3 25.4-12.6 7.4-24 7.4h-11.4q-9 0-13.5-1.6-4.5-1.5-6-6.2-1.6-4.6-1.6-14v-89.8h3.5q13.1 0 23.1 6.1 10 6 16.4 16.4 6.4 10.3 8.5 23.1h7.9q-1.3-19.7-1.7-30-0.4-10.4-0.4-19 0-8.7-0.1-19.1-0.2-10.4 1.2-30h-7.9q-1.4 7.6-5.4 15.5-4 8-10 14.9-6 6.9-14 11.1-8 4.1-17.6 4.1h-3.5v-88.5q0-9.7 1.6-14.1 1.5-4.5 6-6.1 4.5-1.5 13.5-1.5h4.5q14.1 0 27.1 6.7 13 6.7 22.6 23.2 9.7 16.4 13.9 45.1h7.9q-0.3-4.5-0.7-11.1-0.3-6.6-0.3-13.8 0-8.7 0.5-24.7 0.5-16.1 1.9-33.4-15.9 0.7-36.2 0.9-20.1 0.1-36.1 0.1h-23.6q-14.3 0-31.1-0.1-16.7-0.2-33.9-0.4-17.1-0.1-32.3-0.5z"/>
			<path id="Layer" fill-rule="evenodd" class="s2" d="m545.3 80q17.5 17.8 17.5 59.6h-89.3q-0.2 2.6-0.2 5.2 0 3.4 0 7.2 0 24.2 6 37.7 6.1 13.4 15.3 18.6 9.1 5.2 18.5 5.2 4.8 0 11.5-1.4 6.8-1.4 14.7-6.4 8-5 15.5-15.3l5.9 2.1q-4.1 13.7-13.3 27.4-9.1 13.7-23.7 22.5-14.5 8.8-35.2 8.8-22.1 0-40.2-9-18.2-9-28.9-29.7-10.7-20.8-10.7-55.6 0-33.2 11.8-54.1 11.7-20.9 31.9-30.8 20.2-9.8 45.1-9.8 30.4 0 47.8 17.8zm-306.6-12.1q14.9 0.5 29.8 0.5 12.1 0 23.4-0.5 11.4-0.6 17.3-0.9v7.3q-6.9 0-9.5 3.1-2.5 3.1 0.9 8.6l30.1 45.4 5.8-7q10.4-12.8 12.4-23.8 2.1-11.1-3.4-18.4-5.5-7.2-18-8.3v-6.9q10.8 0.3 23.9 0.7 13.1 0.4 22.1 0.4 7.6 0 13.1-0.4 5.5-0.4 10-0.7v6.9q-7.6 3.5-15.7 10.8-8.1 7.2-16.8 17.6l-29.8 34.5 56.5 85q3.1 4.5 7.7 10.4 4.7 5.9 10.2 6.9v7.2q-6.6-0.3-19.3-0.8-12.8-0.6-25.9-0.6-13.9 0-27.4 0.6-13.4 0.5-20.3 0.8v-7.2q6.9 0 9.5-3.1 2.6-3.2-0.9-8.7l-33.9-51.1-3 3.8q-11.4 14.5-12.8 27.8-1.4 13.3 5.5 21.9 6.9 8.7 19 9.7v6.9q-6.9-0.3-18-0.5-11-0.1-21.5-0.3-10.6-0.2-16.8-0.2-7.6 0-13 0.2-5.3 0.2-10.2 0.8v-6.9q9-4.5 16.4-11.2 7.5-6.7 16.1-17.1l34.8-40.2-52.8-79.4q-4.8-7.6-8.8-11.8-3.9-4.4-9.1-5.4v-7.3q7.6 0.3 22.4 0.9zm241.2 16.9q-5.7 14.3-7.5 48.2h40q0.3-16.9-1.4-31.2-1.8-14.4-5.6-23-3.8-8.6-10.3-8.6-9.3 0-15.2 14.6z"/>
			<path id="Layer" fill-rule="evenodd" class="s3" d="m762.5 64.6q5.9 6.6 5.9 16.2 0 10-5.4 15.6-5.4 5.5-13 5.5-6.5 0-11.9-4.5-5.3-4.5-6-13.4-0.6-7.8 4.8-19.2-9.9 4.2-15.9 9.9-3.5 3.3-6.5 7.9 1.6 1.7 3.1 3.6 9.7 12.2 9.7 31.2 0 19.1-9.7 31.3-9.7 12.3-26.4 18.2-16.8 5.8-38.2 5.8-4.9 0-9.5-0.3-2.6 2-5.4 4.5-3.8 3.4-3.8 10 0 11.1 12.4 11.1h33.6q22.5 0 39.2 4.8 16.8 4.8 26.2 15.8 9.5 10.8 9.5 28.4 0 17.3-11.2 31.9-11.2 14.8-34.7 23.5-23.5 8.9-61.1 8.9-23.6 0-40.6-3.7-17.1-3.6-26.5-10.3-9.3-6.8-9.3-16.4 0-9.7 9.7-18.2 9.6-8.4 30.7-13.3l3.5 5.6q-5.6 6.5-7.5 11.9-1.9 5.4-1.9 10.2 0 13.4 12.3 20.8 12.3 7.5 34.4 7.5 15.5 0 26-4.3 10.6-4.3 15.9-11.9 5.4-7.6 5.4-17.3 0-9.7-7.2-16.6-7.3-6.9-29.4-6.9h-18.6q-16 0-26.7-4.2-10.7-4.1-16.2-11.5-5.6-7.5-5.6-17.5 0-16.2 12.8-27.2 10.4-9 25.6-16.4-10.8-1.5-20.2-4.7-16.7-5.9-26.4-18.2-9.7-12.2-9.7-31.3 0-19 9.7-31.2 9.7-12.3 26.4-18.1 16.8-5.9 38.2-5.9 21.4 0 38.2 5.9 10.1 3.5 17.6 9.4 4.4-6.1 10.3-10.6 11.6-8.8 25.4-8.8 12.1 0 18 6.5zm146.6 15.4q17.5 17.8 17.5 59.6h-89.3q-0.2 2.6-0.2 5.2 0 3.4 0 7.2 0 24.2 6 37.7 6.1 13.4 15.3 18.6 9.1 5.2 18.5 5.2 4.8 0 11.5-1.4 6.8-1.4 14.7-6.4 7.9-5 15.5-15.3l5.9 2.1q-4.1 13.7-13.3 27.4-9.2 13.7-23.7 22.5-14.5 8.8-35.2 8.8-22.1 0-40.2-9-18.2-9-28.9-29.7-10.7-20.8-10.7-55.6 0-33.2 11.7-54.1 11.8-20.9 32-30.8 20.2-9.8 45.1-9.8 30.4 0 47.8 17.8zm-266.5-0.8q-3.8 10.6-3.8 38.2 0 27.7 3.8 38.5 3.8 10.6 10.4 10.6 6.6 0 10.3-10.6 3.9-10.8 3.9-38.5 0-27.6-3.9-38.2-3.7-10.8-10.3-10.8-6.6 0-10.4 10.8zm201.1 5.6q-5.7 14.3-7.5 48.2h40q0.3-16.9-1.4-31.2-1.8-14.4-5.6-23-3.8-8.6-10.3-8.6-9.3 0-15.2 14.6zm-134.9-7.3z"/>
			<path id="Layer" fill-rule="evenodd" class="s4" d="m1075.9 62.2q-18.7 0-32.7 6-14 6.1-22.3 19.9v-24.9q-12.7 2.5-27.8 3.7-15 1.2-32.3 1.2-10.3 0-21.4-1.1v7.3q11.1 0 15.2 7.4 4.1 7.4 4.1 23v109.5q0 14.5-4.3 19.7-4.3 5.2-15 5.2v7.2q7.6-0.3 22.4-0.8 14.9-0.6 29.4-0.6 13.5 0 26.2 0.6 12.9 0.5 19.4 0.8v-7.2q-8.6 0-12.3-5.2-3.6-5.2-3.6-19.7v-109.2q0-7.2 3.6-12.9 3.7-5.7 9.4-8.8 5.7-3.1 11.9-3.1 6.2 0 9.8 2.4 3.7 2.4 5.4 7.2 1.7 4.9 1.7 12.1v112.3q0 14.5-3.4 19.7-3.5 5.2-12.5 5.2v7.2q7-0.3 20.7-0.8 13.9-0.6 28.4-0.6 13.5 0 27.5 0.6 14 0.5 20.8 0.8v-7.2q-10.6 0-15-5.2-4.3-5.2-4.3-19.7v-93.6q0-17.7-2.4-28-2.4-10.4-7.6-16.6-4.9-5.8-14-9.8-9.1-4-25-4z"/>
			<path id="Layer" class="s5" d="m1.7 1.7v6.9q10.4 0.4 15.7 2.6 5.4 2.3 7.1 8.3 1.8 6.1 1.8 18.8v171.4q0 12.4-1.8 18.7-1.7 6.2-6.9 8.3-5.2 2-15.9 2.7v6.9q15.2-0.3 32.3-0.5 17.2-0.1 33.9-0.3 16.8-0.2 31.1-0.2h23.6q17.4 0 39.5 0.2 22.1 0.2 39.7 0.8-1.7-17.2-2.1-33.3-0.4-16.1-0.4-24.7 0-19.3 1.1-31.8h-7.9q-5.6 31.1-16.3 49.1-10.7 17.9-23.3 25.4-12.6 7.4-24 7.4h-11.4q-9 0-13.5-1.6-4.5-1.5-6-6.2-1.6-4.6-1.6-14v-89.8h3.5q13.1 0 23.1 6.1 10 6 16.4 16.4 6.4 10.3 8.5 23.1h7.9q-1.3-19.7-1.7-30-0.4-10.4-0.4-19 0-8.7-0.1-19.1-0.2-10.4 1.2-30h-7.9q-1.4 7.6-5.4 15.5-4 8-10 14.9-6 6.9-14 11.1-8 4.1-17.6 4.1h-3.5v-88.5q0-9.7 1.6-14.1 1.5-4.5 6-6.1 4.5-1.5 13.5-1.5h4.5q14.1 0 27.1 6.7 13 6.7 22.6 23.2 9.7 16.4 13.9 45.1h7.9q-0.3-4.5-0.7-11.1-0.3-6.6-0.3-13.8 0-8.7 0.5-24.7 0.5-16.1 1.9-33.4-15.9 0.7-36.2 0.9-20.1 0.1-36.1 0.1h-23.6q-14.3 0-31.1-0.1-16.7-0.2-33.9-0.4-17.1-0.1-32.3-0.5z"/>
			<path id="Layer" class="s5" d="m497.5 62.2q-24.9 0-45.1 9.8-20.2 9.9-31.9 30.8-11.8 20.9-11.8 54.1 0 34.8 10.7 55.6 10.7 20.7 28.9 29.7 18.1 9 40.2 9 20.7 0 35.2-8.8 14.6-8.8 23.7-22.5 9.2-13.7 13.3-27.4l-5.9-2.1q-7.5 10.3-15.5 15.3-7.9 5-14.7 6.4-6.7 1.4-11.5 1.4-9.4 0-18.5-5.2-9.2-5.2-15.3-18.6-6-13.5-6-37.7 0-3.8 0-7.2 0-2.6 0.2-5.2h89.3q0-41.8-17.5-59.6-17.4-17.8-47.8-17.8zm-281.2 4.8v7.3q5.2 1 9.1 5.4 4 4.2 8.8 11.8l52.8 79.4-34.8 40.2q-8.6 10.4-16.1 17.1-7.4 6.7-16.4 11.2v6.9q4.9-0.6 10.2-0.8 5.4-0.2 13-0.2 6.2 0 16.8 0.2 10.5 0.2 21.5 0.3 11.1 0.2 18 0.5v-6.9q-12.1-1-19-9.7-6.9-8.6-5.5-21.9 1.4-13.3 12.8-27.8l3-3.8 33.9 51.1q3.5 5.5 0.9 8.7-2.6 3.1-9.5 3.1v7.2q6.9-0.3 20.3-0.8 13.5-0.6 27.4-0.6 13.1 0 25.9 0.6 12.7 0.5 19.3 0.8v-7.2q-5.5-1-10.2-6.9-4.6-5.9-7.7-10.4l-56.5-85 29.8-34.5q8.7-10.4 16.8-17.6 8.1-7.3 15.7-10.8v-6.9q-4.5 0.3-10 0.7-5.5 0.4-13.1 0.4-9 0-22.1-0.4-13.1-0.4-23.9-0.7v6.9q12.5 1.1 18 8.3 5.5 7.3 3.4 18.4-2 11-12.4 23.8l-5.8 7-30.1-45.4q-3.4-5.5-0.9-8.6 2.6-3.1 9.5-3.1v-7.3q-5.9 0.3-17.3 0.9-11.3 0.5-23.4 0.5-14.9 0-29.8-0.5-14.8-0.6-22.4-0.9zm278.8 3.2q6.5 0 10.3 8.6 3.8 8.6 5.6 23 1.7 14.3 1.4 31.2h-40q1.8-33.9 7.5-48.2 5.9-14.6 15.2-14.6z"/>
			<path id="Layer" class="s5" d="m744.5 58.1q-13.8 0-25.4 8.8-5.9 4.5-10.3 10.6-7.5-5.9-17.6-9.4-16.8-5.9-38.2-5.9-21.4 0-38.2 5.9-16.7 5.8-26.4 18.1-9.7 12.2-9.7 31.2 0 19.1 9.7 31.3 9.7 12.3 26.4 18.2 9.4 3.2 20.2 4.7-15.2 7.4-25.6 16.4-12.8 11-12.8 27.2 0 10 5.6 17.5 5.5 7.4 16.2 11.5 10.7 4.2 26.7 4.2h18.6q22.1 0 29.4 6.9 7.2 6.9 7.2 16.6 0 9.7-5.4 17.3-5.3 7.6-15.9 11.9-10.5 4.3-26 4.3-22.1 0-34.4-7.5-12.3-7.4-12.3-20.8 0-4.8 1.9-10.2 1.9-5.4 7.5-11.9l-3.5-5.6q-21.1 4.9-30.7 13.3-9.7 8.5-9.7 18.2 0 9.6 9.3 16.4 9.4 6.7 26.5 10.3 17 3.7 40.6 3.7 37.6 0 61.1-8.9 23.5-8.7 34.7-23.5 11.2-14.6 11.2-31.9 0-17.6-9.5-28.4-9.4-11-26.2-15.8-16.7-4.8-39.2-4.8h-33.6q-12.4 0-12.4-11.1 0-6.6 3.8-10 2.8-2.5 5.4-4.5 4.6 0.3 9.5 0.3 21.4 0 38.2-5.8 16.7-5.9 26.4-18.2 9.7-12.2 9.7-31.3 0-19-9.7-31.2-1.5-1.9-3.1-3.6 3-4.6 6.5-7.9 6-5.7 15.9-9.9-5.4 11.4-4.8 19.2 0.7 8.9 6 13.4 5.4 4.5 11.9 4.5 7.6 0 13-5.5 5.4-5.6 5.4-15.6 0-9.6-5.9-16.2-5.9-6.5-18-6.5zm116.8 4.1q-24.9 0-45.1 9.8-20.2 9.9-32 30.8-11.7 20.9-11.7 54.1 0 34.8 10.7 55.6 10.7 20.7 28.9 29.7 18.1 9 40.2 9 20.7 0 35.2-8.8 14.5-8.8 23.7-22.5 9.2-13.7 13.3-27.4l-5.9-2.1q-7.6 10.3-15.5 15.3-7.9 5-14.7 6.4-6.7 1.4-11.5 1.4-9.4 0-18.5-5.2-9.2-5.2-15.3-18.6-6-13.5-6-37.7 0-3.8 0-7.2 0-2.6 0.2-5.2h89.3q0-41.8-17.5-59.6-17.4-17.8-47.8-17.8zm-208.3 6.2q6.6 0 10.3 10.8 3.9 10.6 3.9 38.2 0 27.7-3.9 38.5-3.7 10.6-10.3 10.6-6.6 0-10.4-10.6-3.8-10.8-3.8-38.5 0-27.6 3.8-38.2 3.8-10.8 10.4-10.8zm205.9 1.8q6.5 0 10.3 8.6 3.8 8.6 5.6 23 1.7 14.3 1.4 31.2h-40q1.8-33.9 7.5-48.2 5.9-14.6 15.2-14.6zm-150.1 7.3z"/>
			<path id="Layer" class="s5" d="m1075.9 62.2q-18.7 0-32.7 6-14 6.1-22.3 19.9v-24.9q-12.7 2.5-27.8 3.7-15 1.2-32.3 1.2-10.3 0-21.4-1.1v7.3q11.1 0 15.2 7.4 4.1 7.4 4.1 23v109.5q0 14.5-4.3 19.7-4.3 5.2-15 5.2v7.2q7.6-0.3 22.4-0.8 14.9-0.6 29.4-0.6 13.5 0 26.2 0.6 12.9 0.5 19.4 0.8v-7.2q-8.6 0-12.3-5.2-3.6-5.2-3.6-19.7v-109.2q0-7.2 3.6-12.9 3.7-5.7 9.4-8.8 5.7-3.1 11.9-3.1 6.2 0 9.8 2.4 3.7 2.4 5.4 7.2 1.7 4.9 1.7 12.1v112.3q0 14.5-3.4 19.7-3.5 5.2-12.5 5.2v7.2q7-0.3 20.7-0.8 13.9-0.6 28.4-0.6 13.5 0 27.5 0.6 14 0.5 20.8 0.8v-7.2q-10.6 0-15-5.2-4.3-5.2-4.3-19.7v-93.6q0-17.7-2.4-28-2.4-10.4-7.6-16.6-4.9-5.8-14-9.8-9.1-4-25-4z"/>
		</g>
	</g>
</svg>