<svg version="1.1" viewBox="0.0 0.0 1146.0 313.0" fill="none" stroke="none" stroke-linecap="square" stroke-miterlimit="10" xmlns:xlink="http://www.w3.org/1999/xlink" xmlns="http://www.w3.org/2000/svg"><clipPath id="p.0"><path d="m0 0l1146.0 0l0 313.0l-1146.0 0l0 -313.0z" clip-rule="nonzero"/></clipPath><g clip-path="url(#p.0)"><path fill="#000000" fill-opacity="0.0" d="m0 0l1146.0 0l0 313.0l-1146.0 0z" fill-rule="evenodd"/><defs><linearGradient id="p.1" gradientUnits="userSpaceOnUse" gradientTransform="matrix(17.594222565955146 0.0 0.0 17.594222565955146 0.0 0.0)" spreadMethod="pad" x1="0.09913082121407174" y1="0.09767832918805276" x2="0.0990671309979802" y2="17.69190089502792"><stop offset="0.0" stop-color="#3177ee"/><stop offset="1.0" stop-color="#113d8a"/></linearGradient></defs><path fill="url(#p.1)" d="m1.7441297 1.7227103l0 6.916433c6.8976817 0.22492504 12.127159 1.0871382 15.688435 2.5866337c3.5987816 1.4994955 5.9604816 4.273568 7.0851 8.322212c1.1621246 4.011158 1.7431602 10.271563 1.7431602 18.781208l0 171.3926c0 8.284729 -0.5810356 14.507629 -1.7431602 18.668747c-1.1246185 4.1236267 -3.430088 6.878952 -6.9164066 8.265976c-3.4488134 1.3870239 -8.734523 2.305481 -15.857128 2.7553253l0 6.9164276c10.121571 -0.22491455 20.880407 -0.39361572 32.276566 -0.506073c11.433609 -0.112472534 22.736027 -0.22492981 33.90726 -0.33738708c11.171234 -0.112457275 21.536453 -0.16870117 31.095718 -0.16870117l23.616997 0c11.546097 0 24.685379 0.056243896 39.417892 0.16870117c14.732513 0.112457275 27.96553 0.39361572 39.69905 0.8434601c-1.1246185 -11.508636 -1.8181458 -22.623642 -2.0805511 -33.345078c-0.22491455 -10.72139 -0.33737183 -18.949905 -0.33737183 -24.68547c0 -12.895691 0.35612488 -23.4859 1.0683746 -31.770615l-7.9285583 0c-3.7112427 20.730545 -9.146896 37.075058 -16.306976 49.03357c-7.122574 11.958496 -14.882446 20.430649 -23.279617 25.416489c-8.397156 4.948349 -16.400711 7.422516 -24.010605 7.422516l-11.414886 0c-5.9604797 0 -10.440231 -0.52482605 -13.439194 -1.5744781c-2.99897 -1.0496368 -5.023285 -3.111435 -6.0729446 -6.185425c-1.0496597 -3.1114655 -1.5744705 -7.778656 -1.5744705 -14.001556l0 -89.8574l3.4863205 0c8.734528 0 16.438164 2.0243149 23.110924 6.07296c6.7102356 4.011154 12.183395 9.484314 16.419434 16.41951c4.2735596 6.8976746 7.1038513 14.601349 8.490875 23.111008l7.9285583 0c-0.8996887 -13.120621 -1.4807587 -23.12976 -1.7431488 -30.02745c-0.22492981 -6.9351654 -0.33738708 -13.270554 -0.33738708 -19.006126c0 -5.7730713 -0.056228638 -12.108452 -0.16870117 -19.006134c-0.112457275 -6.935173 0.2999115 -16.963058 1.2370911 -30.083672l-7.9285736 0c-0.9371643 5.0608063 -2.736557 10.252808 -5.398163 15.576035c-2.6240997 5.2857285 -5.9604797 10.23407 -10.0091095 14.845024c-4.011154 4.6109543 -8.678322 8.303474 -14.001511 11.077538c-5.2857056 2.7365875 -11.152451 4.1048737 -17.600288 4.1048737l-3.4863205 0l0 -88.451614c0 -6.447838 0.5248108 -11.15251 1.5744705 -14.114021c1.0496597 -2.9989977 3.0739746 -5.0233192 6.0729446 -6.0729656c2.9989624 -1.0496464 7.4786835 -1.5744724 13.439194 -1.5744724l4.498474 0c9.446808 0 18.481232 2.2492466 27.103317 6.74774c8.659561 4.498493 16.213272 12.220907 22.661072 23.16724c6.447815 10.946335 11.058746 25.978798 13.832809 45.09739l7.9285736 0c-0.22492981 -2.998993 -0.44984436 -6.6915054 -0.67477417 -11.077538c-0.22492981 -4.386032 -0.33738708 -8.996986 -0.33738708 -13.832867c0 -5.7355766 0.16870117 -13.964066 0.506073 -24.685478c0.33738708 -10.721407 0.97468567 -21.836432 1.9118652 -33.34508l0 0c-10.608902 0.44984925 -22.661072 0.7310051 -36.15651 0.84346735c-13.457947 0.11246228 -25.491364 0.16869354 -36.100266 0.16869354l-23.616997 0c-9.559265 0 -19.924484 -0.05623126 -31.095718 -0.16869354c-11.171234 -0.11246228 -22.473652 -0.22492456 -33.90726 -0.33738685c-11.396158 -0.11246252 -22.154995 -0.28115594 -32.276566 -0.5060805z" fill-rule="evenodd"/><defs><linearGradient id="p.2" gradientUnits="userSpaceOnUse" gradientTransform="matrix(17.594222565955146 0.0 0.0 17.594222565955146 0.0 0.0)" spreadMethod="pad" x1="0.09913082121407174" y1="0.09767832918805276" x2="0.0990671309979802" y2="17.69190089502792"><stop offset="0.0" stop-color="#3177ee"/><stop offset="1.0" stop-color="#113d8a"/></linearGradient></defs><path fill="url(#p.2)" d="m495.06934 70.15604c4.386017 0 7.834839 2.886528 10.346497 8.659599c2.5491333 5.7355804 4.4047546 13.3830185 5.566864 22.942314c1.1620789 9.559296 1.6307068 19.980797 1.4057922 31.264526l-39.98633 0c1.2061462 -22.630974 3.7010803 -38.694344 7.484833 -48.19011c3.9361572 -9.784218 8.996948 -14.676331 15.182343 -14.676331zm-278.77048 -3.1489487l0 7.2538223c3.4488373 0.712265 6.485321 2.5116653 9.109421 5.3981934c2.6616058 2.8490448 5.60437 6.8039703 8.828262 11.864777l52.7406 79.407104l-34.746704 40.14035c-5.773041 6.9351807 -11.133728 12.652008 -16.082047 17.150497c-4.9483337 4.461014 -10.421478 8.191025 -16.419449 11.190002l0 6.9164276c3.2239227 -0.44984436 6.6165314 -0.7310028 10.177811 -0.8434601c3.5987854 -0.112457275 7.9285583 -0.16870117 12.989349 -0.16870117c4.161087 0 9.746704 0.056243896 16.75682 0.16870117c7.0101013 0.112457275 14.207672 0.22491455 21.592682 0.33738708c7.38501 0.112457275 13.364227 0.28115845 17.937683 0.506073l0 -6.9164276c-8.059784 -0.67477417 -14.395142 -3.898697 -19.006073 -9.671753c-4.573456 -5.7730713 -6.4103394 -13.083115 -5.51062 -21.93016c0.9371643 -8.8845215 5.210724 -18.162659 12.820648 -27.834427l2.9673157 -3.8088074l33.97641 51.15544c2.2867126 3.6737823 2.567871 6.5603333 0.84347534 8.659607c-1.7243958 2.061798 -4.89209 3.0927124 -9.503021 3.0927124l0 7.2538147c4.6109314 -0.22491455 11.396118 -0.506073 20.35559 -0.8434601c8.996948 -0.37486267 18.106354 -0.5623169 27.328247 -0.5623169c8.772034 0 17.412842 0.18745422 25.922455 0.5623169c8.509613 0.33738708 14.957428 0.61854553 19.343445 0.8434601l0 -7.2538147c-3.6737366 -0.67477417 -7.066345 -2.961502 -10.177795 -6.860199c-3.1114502 -3.9361877 -5.698059 -7.403763 -7.759857 -10.402771l-56.464966 -85.01457l29.811493 -34.532875c5.773041 -6.8976974 11.358643 -12.764473 16.756805 -17.600357c5.435669 -4.8358765 10.683899 -8.415932 15.744659 -10.74015l0 -6.9164352c-2.9989624 0.22492981 -6.335327 0.46858978 -10.009094 0.73101044c-3.6737366 0.22492218 -8.059753 0.33738708 -13.158051 0.33738708c-5.9604797 0 -13.326721 -0.112464905 -22.098755 -0.33738708c-8.734528 -0.26242065 -16.681824 -0.5060806 -23.841919 -0.73101044l0 6.9164352c8.2846985 0.712265 14.263916 3.4863358 17.937683 8.322212c3.7112427 4.8358765 4.873352 10.946335 3.4862976 18.33136c-1.3870239 7.347542 -5.5293884 15.276138 -12.427032 23.785782l-5.7819824 7.044075l-30.149597 -45.39373c-2.2867126 -3.673767 -2.567871 -6.5415497 -0.84347534 -8.603363c1.7244263 -2.0992966 4.8921204 -3.1489487 9.503052 -3.1489487l0 -7.2538223c-3.9361877 0.22492981 -9.709198 0.5248184 -17.319153 0.899704c-7.572418 0.33738708 -15.388519 0.5060806 -23.448303 0.5060806c-9.934113 0 -19.849518 -0.16869354 -29.746155 -0.5060806c-9.896652 -0.37488556 -17.375366 -0.67477417 -22.436157 -0.899704zm281.18842 -4.8358765c-16.569397 0 -31.601807 3.2801437 -45.09723 9.840454c-13.457947 6.5603027 -24.10431 16.813118 -31.939178 30.758446c-7.834839 13.945328 -11.752258 31.976791 -11.752258 54.094376c0 23.242218 3.5612793 41.779755 10.683868 55.612625c7.1600647 13.832855 16.794312 23.748306 28.90271 29.746277c12.108398 5.9605103 25.52884 8.940765 40.261353 8.940765c13.795349 0 25.52884 -2.9240265 35.200592 -8.772064c9.671692 -5.8855286 17.562805 -13.383026 23.673218 -22.492462c6.1104126 -9.109451 10.552673 -18.256378 13.326721 -27.440811l-5.904236 -2.0805511c-5.060791 6.8976746 -10.234009 12.014709 -15.519714 15.351105c-5.2857056 3.3363953 -10.177856 5.473175 -14.676331 6.4103546c-4.498474 0.8996887 -8.359619 1.3495483 -11.583557 1.3495483c-6.22287 0 -12.389526 -1.724411 -18.49997 -5.173279c-6.110443 -3.4488525 -11.189972 -9.65303 -15.238586 -18.612503c-4.011139 -8.996994 -6.0167236 -21.555298 -6.0167236 -37.67488c0 -2.5491638 0 -4.967102 0 -7.25383c0 -1.734848 0.07312012 -3.4592743 0.21932983 -5.1732635l89.300354 0c0 -27.890656 -5.8292847 -47.758995 -17.487854 -59.605026c-11.621033 -11.883514 -27.5719 -17.82528 -47.85251 -17.82528z" fill-rule="evenodd"/><defs><linearGradient id="p.3" gradientUnits="userSpaceOnUse" gradientTransform="matrix(17.594222565955146 0.0 0.0 17.594222565955146 0.0 0.0)" spreadMethod="pad" x1="0.09913082121407174" y1="0.09767832918805276" x2="0.0990671309979802" y2="17.69190089502792"><stop offset="0.0" stop-color="#3177ee"/><stop offset="1.0" stop-color="#113d8a"/></linearGradient></defs><path fill="url(#p.3)" d="m708.8138 77.467155c0 0 0 0 0 0l0 0c0 0 0 0 0 0zm150.04895 -7.311119c4.3859863 0 7.834839 2.886528 10.346497 8.659599c2.5491333 5.7355804 4.404724 13.3830185 5.5668335 22.942314c1.1621094 9.559296 1.6306763 19.980797 1.4057617 31.264526l-39.98633 0c1.2061768 -22.630974 3.7011108 -38.694344 7.4848633 -48.19011c3.9361572 -9.784218 8.996948 -14.676331 15.182373 -14.676331zm-205.87268 -1.7431641c4.3860474 0 7.834839 3.5800552 10.346497 10.74015c2.5491333 7.1226196 3.8237305 19.887093 3.8237305 38.29342c0 18.443817 -1.2745972 31.245773 -3.8237305 38.405884c-2.5116577 7.1226044 -5.960449 10.683929 -10.346497 10.683929c-4.3859863 0 -7.8535767 -3.561325 -10.40271 -10.683929c-2.5116577 -7.1601105 -3.767456 -19.962082 -3.767456 -38.405884c0 -18.406326 1.2557983 -31.1708 3.767456 -38.29342c2.5491333 -7.160095 6.0167236 -10.74015 10.40271 -10.74015zm208.29059 -6.241661c-16.569397 0 -31.601807 3.2801437 -45.09723 9.840454c-13.457947 6.5603027 -24.10431 16.813118 -31.939148 30.758446c-7.834839 13.945328 -11.752319 31.976791 -11.752319 54.094376c0 23.242218 3.5613403 41.779755 10.683899 55.612625c7.160095 13.832855 16.794312 23.748306 28.90271 29.746277c12.108398 5.9605103 25.52887 8.940765 40.261353 8.940765c13.795349 0 25.52887 -2.9240265 35.20056 -8.772064c9.671753 -5.8855286 17.562866 -13.383026 23.673279 -22.492462c6.1104126 -9.109451 10.552673 -18.256378 13.326721 -27.440811l-5.904236 -2.0805511c-5.060791 6.8976746 -10.23407 12.014709 -15.519775 15.351105c-5.2857056 3.3363953 -10.177795 5.473175 -14.67627 6.4103546c-4.498474 0.8996887 -8.35968 1.3495483 -11.583557 1.3495483c-6.2229004 0 -12.389526 -1.724411 -18.5 -5.173279c-6.1104126 -3.4488525 -11.189941 -9.65303 -15.238586 -18.612503c-4.0111694 -8.996994 -6.0167236 -21.555298 -6.0167236 -37.67488c0 -2.5491638 0 -4.967102 0 -7.25383c0 -1.734848 0.07312012 -3.4592743 0.21929932 -5.1732635l89.300415 0c0 -27.890656 -5.8292847 -47.758995 -17.487854 -59.605026c-11.621033 -11.883514 -27.5719 -17.82528 -47.85254 -17.82528zm-116.74658 -4.1048775c-9.221863 0 -17.69403 2.9427605 -25.416382 8.828297c-3.9630127 3.015747 -7.397644 6.5399323 -10.303894 10.572525l0 0c-5.021057 -3.9085846 -10.902039 -7.0391464 -17.642883 -9.39167c-11.171265 -3.9361877 -23.898193 -5.904274 -38.180847 -5.904274c-14.282654 0 -27.009583 1.9680862 -38.180786 5.904274c-11.171265 3.8986893 -19.980774 9.934158 -26.428589 18.10643c-6.447815 8.172256 -9.671692 18.593765 -9.671692 31.264526c0 12.670746 3.223877 23.092255 9.671692 31.264526c6.447815 8.172272 15.257324 14.226486 26.428589 18.162674c6.2300415 2.1742554 12.94397 3.7422485 20.141785 4.703949l0 0c-10.092468 4.9304047 -18.605774 10.391312 -25.539978 16.382736c-8.509644 7.347519 -12.764404 16.438217 -12.764404 27.27211c0 6.67276 1.836853 12.483322 5.51062 17.431656c3.7112427 4.948349 9.128174 8.80954 16.250732 11.583618c7.160095 2.7740784 16.044556 4.1611023 26.653503 4.1611023l18.612427 0c14.7699585 0 24.572937 2.305481 29.408752 6.916443c4.8358765 4.610962 7.253784 10.14035 7.253784 16.588196c0 6.447815 -1.7993774 12.202148 -5.3981323 17.26297c-3.5612793 5.060791 -8.865723 9.034454 -15.913391 11.92099c-7.010071 2.8865356 -15.688416 4.3298035 -26.034912 4.3298035c-14.732483 0 -26.203613 -2.49292 -34.41333 -7.4787292c-8.172241 -4.9483643 -12.258362 -11.902252 -12.258362 -20.861786c0 -3.2239075 0.63726807 -6.635254 1.9118652 -10.23407c1.2745972 -3.5613098 3.7487183 -7.5162354 7.4224854 -11.864761l-3.4301147 -5.5668945c-14.057739 3.223938 -24.310486 7.6474457 -30.7583 13.270554c-6.447815 5.660614 -9.671753 11.714813 -9.671753 18.162659c0 6.4478455 3.1114502 11.9210205 9.334351 16.419525c6.2229004 4.498474 15.03241 7.9473267 26.428589 10.346527c11.396118 2.436676 24.929016 3.6550293 40.598694 3.6550293c25.116516 0 45.490845 -2.9427795 61.123047 -8.828308c15.669739 -5.8480225 27.234558 -13.682922 34.69452 -23.504608c7.4974365 -9.784241 11.246155 -20.430664 11.246155 -31.939316c0 -11.733551 -3.1676636 -21.217865 -9.502991 -28.452957c-6.2978516 -7.272583 -15.03241 -12.520828 -26.203613 -15.744736c-11.171265 -3.2239227 -24.254333 -4.8358765 -39.249207 -4.8358765l-33.51367 0c-8.284668 0 -12.427002 -3.692505 -12.427002 -11.077545c0 -4.386017 1.2557983 -7.722412 3.767456 -10.00914c1.8585205 -1.6672516 3.6572876 -3.1551514 5.3963013 -4.463684l0 0c3.0878296 0.20173645 6.2561035 0.3025818 9.504883 0.3025818c14.282654 0 27.009583 -1.9493408 38.180847 -5.8480377c11.171204 -3.9361877 19.980713 -9.990402 26.428528 -18.162674c6.447815 -8.172256 9.671692 -18.593765 9.671692 -31.264526c0 -12.6707535 -3.223877 -23.092255 -9.671692 -31.264526c-0.979126 -1.2409668 -2.0126953 -2.4326859 -3.100769 -3.5751266l0 0c1.9955444 -3.0773544 4.1724854 -5.7281113 6.5308228 -7.952263c3.9873047 -3.7927704 9.264038 -7.066948 15.830261 -9.822533l0 0c-3.55719 7.5889664 -5.1414185 13.974609 -4.7527466 19.156906c0.4498291 5.9605026 2.4554443 10.440262 6.0167236 13.439247c3.598755 2.998993 7.5724487 4.498497 11.920959 4.498497c5.060791 0 9.371826 -1.8368912 12.933105 -5.5106583c3.598816 -3.7112503 5.3981934 -8.903259 5.3981934 -15.576027c0 -6.4478455 -1.9680786 -11.846039 -5.904236 -16.19458c-3.8986816 -4.3860283 -9.87793 -6.5790443 -17.937683 -6.5790443z" fill-rule="evenodd"/><defs><linearGradient id="p.4" gradientUnits="userSpaceOnUse" gradientTransform="matrix(17.594222565955146 0.0 0.0 17.594222565955146 0.0 0.0)" spreadMethod="pad" x1="0.09913082121407174" y1="0.09767832918805276" x2="0.0990671309979802" y2="17.69190089502792"><stop offset="0.0" stop-color="#3177ee"/><stop offset="1.0" stop-color="#113d8a"/></linearGradient></defs><path fill="url(#p.4)" d="m1075.8574 62.17121c-12.445801 0 -23.335815 2.0243225 -32.670166 6.0729675c-9.334351 4.0111465 -16.756836 10.627686 -22.267517 19.849594l0 -24.854172c-8.5095825 1.611969 -17.78772 2.8303146 -27.83429 3.6550293c-10.009094 0.78723145 -20.768005 1.1808548 -32.27655 1.1808548c-6.897705 0 -14.039001 -0.3561325 -21.424011 -1.0683975l0 7.2538223c7.38501 0 12.445801 2.4741745 15.182373 7.422516c2.7740479 4.9483414 4.161072 12.614517 4.161072 22.998543l0 109.53831c0 9.671753 -1.4432373 16.232056 -4.329773 19.680908c-2.8865356 3.4488525 -7.8911133 5.1732635 -15.013672 5.1732635l0 7.2538147c5.060791 -0.22491455 12.53949 -0.506073 22.436157 -0.8434601c9.934082 -0.37486267 19.73706 -0.5623169 29.408752 -0.5623169c8.959473 0 17.69403 0.18745422 26.203613 0.5623169c8.54718 0.33738708 15.013733 0.61854553 19.39972 0.8434601l0 -7.2538147c-5.7730713 0 -9.87793 -1.724411 -12.314575 -5.1732635c-2.39917 -3.4488525 -3.598816 -10.009155 -3.598816 -19.680908l0 -109.20092c0 -4.8358765 1.199646 -9.146942 3.598816 -12.9331665c2.4366455 -3.8237228 5.5480957 -6.7664795 9.334351 -8.828293c3.8237305 -2.0618134 7.7973633 -3.0927124 11.920898 -3.0927124c4.161133 0 7.441284 0.80597687 9.840454 2.4179382c2.4366455 1.6119614 4.217285 4.029907 5.341919 7.2538223c1.1621094 3.223915 1.7431641 7.2538147 1.7431641 12.089699l0 112.29363c0 9.671753 -1.1433105 16.232056 -3.4300537 19.680908c-2.2867432 3.4488525 -6.429077 5.1732635 -12.427124 5.1732635l0 7.2538147c4.610962 -0.22491455 11.508667 -0.506073 20.692993 -0.8434601c9.221924 -0.37486267 18.668701 -0.5623169 28.340454 -0.5623169c8.996948 0 18.162598 0.18745422 27.496948 0.5623169c9.334351 0.33738708 16.288208 0.61854553 20.861694 0.8434601l0 -7.2538147c-7.1226807 0 -12.127197 -1.724411 -15.013672 -5.1732635c-2.8864746 -3.4488525 -4.329834 -10.009155 -4.329834 -19.680908l0 -93.624886c0 -11.771057 -0.8059082 -21.10543 -2.4178467 -28.00312c-1.6120605 -6.8976974 -4.142456 -12.427086 -7.5911865 -16.588196c-3.223877 -3.8986893 -7.8911133 -7.178833 -14.001587 -9.840454c-6.072876 -2.661602 -14.413818 -3.9924088 -25.022705 -3.9924088z" fill-rule="evenodd"/><path stroke="#1c4587" stroke-width="3.0" stroke-linejoin="round" stroke-linecap="butt" d="m1.7441297 1.7227103l0 6.916433c6.8976817 0.22492504 12.127159 1.0871382 15.688435 2.5866337c3.5987816 1.4994955 5.9604816 4.273568 7.0851 8.322212c1.1621246 4.011158 1.7431602 10.271563 1.7431602 18.781208l0 171.3926c0 8.284729 -0.5810356 14.507629 -1.7431602 18.668747c-1.1246185 4.1236267 -3.430088 6.878952 -6.9164066 8.265976c-3.4488134 1.3870239 -8.734523 2.305481 -15.857128 2.7553253l0 6.9164276c10.121571 -0.22491455 20.880407 -0.39361572 32.276566 -0.506073c11.433609 -0.112472534 22.736027 -0.22492981 33.90726 -0.33738708c11.171234 -0.112457275 21.536453 -0.16870117 31.095718 -0.16870117l23.616997 0c11.546097 0 24.685379 0.056243896 39.417892 0.16870117c14.732513 0.112457275 27.96553 0.39361572 39.69905 0.8434601c-1.1246185 -11.508636 -1.8181458 -22.623642 -2.0805511 -33.345078c-0.22491455 -10.72139 -0.33737183 -18.949905 -0.33737183 -24.68547c0 -12.895691 0.35612488 -23.4859 1.0683746 -31.770615l-7.9285583 0c-3.7112427 20.730545 -9.146896 37.075058 -16.306976 49.03357c-7.122574 11.958496 -14.882446 20.430649 -23.279617 25.416489c-8.397156 4.948349 -16.400711 7.422516 -24.010605 7.422516l-11.414886 0c-5.9604797 0 -10.440231 -0.52482605 -13.439194 -1.5744781c-2.99897 -1.0496368 -5.023285 -3.111435 -6.0729446 -6.185425c-1.0496597 -3.1114655 -1.5744705 -7.778656 -1.5744705 -14.001556l0 -89.8574l3.4863205 0c8.734528 0 16.438164 2.0243149 23.110924 6.07296c6.7102356 4.011154 12.183395 9.484314 16.419434 16.41951c4.2735596 6.8976746 7.1038513 14.601349 8.490875 23.111008l7.9285583 0c-0.8996887 -13.120621 -1.4807587 -23.12976 -1.7431488 -30.02745c-0.22492981 -6.9351654 -0.33738708 -13.270554 -0.33738708 -19.006126c0 -5.7730713 -0.056228638 -12.108452 -0.16870117 -19.006134c-0.112457275 -6.935173 0.2999115 -16.963058 1.2370911 -30.083672l-7.9285736 0c-0.9371643 5.0608063 -2.736557 10.252808 -5.398163 15.576035c-2.6240997 5.2857285 -5.9604797 10.23407 -10.0091095 14.845024c-4.011154 4.6109543 -8.678322 8.303474 -14.001511 11.077538c-5.2857056 2.7365875 -11.152451 4.1048737 -17.600288 4.1048737l-3.4863205 0l0 -88.451614c0 -6.447838 0.5248108 -11.15251 1.5744705 -14.114021c1.0496597 -2.9989977 3.0739746 -5.0233192 6.0729446 -6.0729656c2.9989624 -1.0496464 7.4786835 -1.5744724 13.439194 -1.5744724l4.498474 0c9.446808 0 18.481232 2.2492466 27.103317 6.74774c8.659561 4.498493 16.213272 12.220907 22.661072 23.16724c6.447815 10.946335 11.058746 25.978798 13.832809 45.09739l7.9285736 0c-0.22492981 -2.998993 -0.44984436 -6.6915054 -0.67477417 -11.077538c-0.22492981 -4.386032 -0.33738708 -8.996986 -0.33738708 -13.832867c0 -5.7355766 0.16870117 -13.964066 0.506073 -24.685478c0.33738708 -10.721407 0.97468567 -21.836432 1.9118652 -33.34508l0 0c-10.608902 0.44984925 -22.661072 0.7310051 -36.15651 0.84346735c-13.457947 0.11246228 -25.491364 0.16869354 -36.100266 0.16869354l-23.616997 0c-9.559265 0 -19.924484 -0.05623126 -31.095718 -0.16869354c-11.171234 -0.11246228 -22.473652 -0.22492456 -33.90726 -0.33738685c-11.396158 -0.11246252 -22.154995 -0.28115594 -32.276566 -0.5060805z" fill-rule="evenodd"/><path stroke="#1c4587" stroke-width="3.0" stroke-linejoin="round" stroke-linecap="butt" d="m495.06934 70.15604c4.386017 0 7.834839 2.886528 10.346497 8.659599c2.5491333 5.7355804 4.4047546 13.3830185 5.566864 22.942314c1.1620789 9.559296 1.6307068 19.980797 1.4057922 31.264526l-39.98633 0c1.2061462 -22.630974 3.7010803 -38.694344 7.484833 -48.19011c3.9361572 -9.784218 8.996948 -14.676331 15.182343 -14.676331zm-278.77048 -3.1489487l0 7.2538223c3.4488373 0.712265 6.485321 2.5116653 9.109421 5.3981934c2.6616058 2.8490448 5.60437 6.8039703 8.828262 11.864777l52.7406 79.407104l-34.746704 40.14035c-5.773041 6.9351807 -11.133728 12.652008 -16.082047 17.150497c-4.9483337 4.461014 -10.421478 8.191025 -16.419449 11.190002l0 6.9164276c3.2239227 -0.44984436 6.6165314 -0.7310028 10.177811 -0.8434601c3.5987854 -0.112457275 7.9285583 -0.16870117 12.989349 -0.16870117c4.161087 0 9.746704 0.056243896 16.75682 0.16870117c7.0101013 0.112457275 14.207672 0.22491455 21.592682 0.33738708c7.38501 0.112457275 13.364227 0.28115845 17.937683 0.506073l0 -6.9164276c-8.059784 -0.67477417 -14.395142 -3.898697 -19.006073 -9.671753c-4.573456 -5.7730713 -6.4103394 -13.083115 -5.51062 -21.93016c0.9371643 -8.8845215 5.210724 -18.162659 12.820648 -27.834427l2.9673157 -3.8088074l33.97641 51.15544c2.2867126 3.6737823 2.567871 6.5603333 0.84347534 8.659607c-1.7243958 2.061798 -4.89209 3.0927124 -9.503021 3.0927124l0 7.2538147c4.6109314 -0.22491455 11.396118 -0.506073 20.35559 -0.8434601c8.996948 -0.37486267 18.106354 -0.5623169 27.328247 -0.5623169c8.772034 0 17.412842 0.18745422 25.922455 0.5623169c8.509613 0.33738708 14.957428 0.61854553 19.343445 0.8434601l0 -7.2538147c-3.6737366 -0.67477417 -7.066345 -2.961502 -10.177795 -6.860199c-3.1114502 -3.9361877 -5.698059 -7.403763 -7.759857 -10.402771l-56.464966 -85.01457l29.811493 -34.532875c5.773041 -6.8976974 11.358643 -12.764473 16.756805 -17.600357c5.435669 -4.8358765 10.683899 -8.415932 15.744659 -10.74015l0 -6.9164352c-2.9989624 0.22492981 -6.335327 0.46858978 -10.009094 0.73101044c-3.6737366 0.22492218 -8.059753 0.33738708 -13.158051 0.33738708c-5.9604797 0 -13.326721 -0.112464905 -22.098755 -0.33738708c-8.734528 -0.26242065 -16.681824 -0.5060806 -23.841919 -0.73101044l0 6.9164352c8.2846985 0.712265 14.263916 3.4863358 17.937683 8.322212c3.7112427 4.8358765 4.873352 10.946335 3.4862976 18.33136c-1.3870239 7.347542 -5.5293884 15.276138 -12.427032 23.785782l-5.7819824 7.044075l-30.149597 -45.39373c-2.2867126 -3.673767 -2.567871 -6.5415497 -0.84347534 -8.603363c1.7244263 -2.0992966 4.8921204 -3.1489487 9.503052 -3.1489487l0 -7.2538223c-3.9361877 0.22492981 -9.709198 0.5248184 -17.319153 0.899704c-7.572418 0.33738708 -15.388519 0.5060806 -23.448303 0.5060806c-9.934113 0 -19.849518 -0.16869354 -29.746155 -0.5060806c-9.896652 -0.37488556 -17.375366 -0.67477417 -22.436157 -0.899704zm281.18842 -4.8358765c-16.569397 0 -31.601807 3.2801437 -45.09723 9.840454c-13.457947 6.5603027 -24.10431 16.813118 -31.939178 30.758446c-7.834839 13.945328 -11.752258 31.976791 -11.752258 54.094376c0 23.242218 3.5612793 41.779755 10.683868 55.612625c7.1600647 13.832855 16.794312 23.748306 28.90271 29.746277c12.108398 5.9605103 25.52884 8.940765 40.261353 8.940765c13.795349 0 25.52884 -2.9240265 35.200592 -8.772064c9.671692 -5.8855286 17.562805 -13.383026 23.673218 -22.492462c6.1104126 -9.109451 10.552673 -18.256378 13.326721 -27.440811l-5.904236 -2.0805511c-5.060791 6.8976746 -10.234009 12.014709 -15.519714 15.351105c-5.2857056 3.3363953 -10.177856 5.473175 -14.676331 6.4103546c-4.498474 0.8996887 -8.359619 1.3495483 -11.583557 1.3495483c-6.22287 0 -12.389526 -1.724411 -18.49997 -5.173279c-6.110443 -3.4488525 -11.189972 -9.65303 -15.238586 -18.612503c-4.011139 -8.996994 -6.0167236 -21.555298 -6.0167236 -37.67488c0 -2.5491638 0 -4.967102 0 -7.25383c0 -1.734848 0.07312012 -3.4592743 0.21932983 -5.1732635l89.300354 0c0 -27.890656 -5.8292847 -47.758995 -17.487854 -59.605026c-11.621033 -11.883514 -27.5719 -17.82528 -47.85251 -17.82528z" fill-rule="evenodd"/><path stroke="#1c4587" stroke-width="3.0" stroke-linejoin="round" stroke-linecap="butt" d="m708.8138 77.467155c0 0 0 0 0 0l0 0c0 0 0 0 0 0zm150.04895 -7.311119c4.3859863 0 7.834839 2.886528 10.346497 8.659599c2.5491333 5.7355804 4.404724 13.3830185 5.5668335 22.942314c1.1621094 9.559296 1.6306763 19.980797 1.4057617 31.264526l-39.98633 0c1.2061768 -22.630974 3.7011108 -38.694344 7.4848633 -48.19011c3.9361572 -9.784218 8.996948 -14.676331 15.182373 -14.676331zm-205.87268 -1.7431641c4.3860474 0 7.834839 3.5800552 10.346497 10.74015c2.5491333 7.1226196 3.8237305 19.887093 3.8237305 38.29342c0 18.443817 -1.2745972 31.245773 -3.8237305 38.405884c-2.5116577 7.1226044 -5.960449 10.683929 -10.346497 10.683929c-4.3859863 0 -7.8535767 -3.561325 -10.40271 -10.683929c-2.5116577 -7.1601105 -3.767456 -19.962082 -3.767456 -38.405884c0 -18.406326 1.2557983 -31.1708 3.767456 -38.29342c2.5491333 -7.160095 6.0167236 -10.74015 10.40271 -10.74015zm208.29059 -6.241661c-16.569397 0 -31.601807 3.2801437 -45.09723 9.840454c-13.457947 6.5603027 -24.10431 16.813118 -31.939148 30.758446c-7.834839 13.945328 -11.752319 31.976791 -11.752319 54.094376c0 23.242218 3.5613403 41.779755 10.683899 55.612625c7.160095 13.832855 16.794312 23.748306 28.90271 29.746277c12.108398 5.9605103 25.52887 8.940765 40.261353 8.940765c13.795349 0 25.52887 -2.9240265 35.20056 -8.772064c9.671753 -5.8855286 17.562866 -13.383026 23.673279 -22.492462c6.1104126 -9.109451 10.552673 -18.256378 13.326721 -27.440811l-5.904236 -2.0805511c-5.060791 6.8976746 -10.23407 12.014709 -15.519775 15.351105c-5.2857056 3.3363953 -10.177795 5.473175 -14.67627 6.4103546c-4.498474 0.8996887 -8.35968 1.3495483 -11.583557 1.3495483c-6.2229004 0 -12.389526 -1.724411 -18.5 -5.173279c-6.1104126 -3.4488525 -11.189941 -9.65303 -15.238586 -18.612503c-4.0111694 -8.996994 -6.0167236 -21.555298 -6.0167236 -37.67488c0 -2.5491638 0 -4.967102 0 -7.25383c0 -1.734848 0.07312012 -3.4592743 0.21929932 -5.1732635l89.300415 0c0 -27.890656 -5.8292847 -47.758995 -17.487854 -59.605026c-11.621033 -11.883514 -27.5719 -17.82528 -47.85254 -17.82528zm-116.74658 -4.1048775c-9.221863 0 -17.69403 2.9427605 -25.416382 8.828297c-3.9630127 3.015747 -7.397644 6.5399323 -10.303894 10.572525l0 0c-5.021057 -3.9085846 -10.902039 -7.0391464 -17.642883 -9.39167c-11.171265 -3.9361877 -23.898193 -5.904274 -38.180847 -5.904274c-14.282654 0 -27.009583 1.9680862 -38.180786 5.904274c-11.171265 3.8986893 -19.980774 9.934158 -26.428589 18.10643c-6.447815 8.172256 -9.671692 18.593765 -9.671692 31.264526c0 12.670746 3.223877 23.092255 9.671692 31.264526c6.447815 8.172272 15.257324 14.226486 26.428589 18.162674c6.2300415 2.1742554 12.94397 3.7422485 20.141785 4.703949l0 0c-10.092468 4.9304047 -18.605774 10.391312 -25.539978 16.382736c-8.509644 7.347519 -12.764404 16.438217 -12.764404 27.27211c0 6.67276 1.836853 12.483322 5.51062 17.431656c3.7112427 4.948349 9.128174 8.80954 16.250732 11.583618c7.160095 2.7740784 16.044556 4.1611023 26.653503 4.1611023l18.612427 0c14.7699585 0 24.572937 2.305481 29.408752 6.916443c4.8358765 4.610962 7.253784 10.14035 7.253784 16.588196c0 6.447815 -1.7993774 12.202148 -5.3981323 17.26297c-3.5612793 5.060791 -8.865723 9.034454 -15.913391 11.92099c-7.010071 2.8865356 -15.688416 4.3298035 -26.034912 4.3298035c-14.732483 0 -26.203613 -2.49292 -34.41333 -7.4787292c-8.172241 -4.9483643 -12.258362 -11.902252 -12.258362 -20.861786c0 -3.2239075 0.63726807 -6.635254 1.9118652 -10.23407c1.2745972 -3.5613098 3.7487183 -7.5162354 7.4224854 -11.864761l-3.4301147 -5.5668945c-14.057739 3.223938 -24.310486 7.6474457 -30.7583 13.270554c-6.447815 5.660614 -9.671753 11.714813 -9.671753 18.162659c0 6.4478455 3.1114502 11.9210205 9.334351 16.419525c6.2229004 4.498474 15.03241 7.9473267 26.428589 10.346527c11.396118 2.436676 24.929016 3.6550293 40.598694 3.6550293c25.116516 0 45.490845 -2.9427795 61.123047 -8.828308c15.669739 -5.8480225 27.234558 -13.682922 34.69452 -23.504608c7.4974365 -9.784241 11.246155 -20.430664 11.246155 -31.939316c0 -11.733551 -3.1676636 -21.217865 -9.502991 -28.452957c-6.2978516 -7.272583 -15.03241 -12.520828 -26.203613 -15.744736c-11.171265 -3.2239227 -24.254333 -4.8358765 -39.249207 -4.8358765l-33.51367 0c-8.284668 0 -12.427002 -3.692505 -12.427002 -11.077545c0 -4.386017 1.2557983 -7.722412 3.767456 -10.00914c1.8585205 -1.6672516 3.6572876 -3.1551514 5.3963013 -4.463684l0 0c3.0878296 0.20173645 6.2561035 0.3025818 9.504883 0.3025818c14.282654 0 27.009583 -1.9493408 38.180847 -5.8480377c11.171204 -3.9361877 19.980713 -9.990402 26.428528 -18.162674c6.447815 -8.172256 9.671692 -18.593765 9.671692 -31.264526c0 -12.6707535 -3.223877 -23.092255 -9.671692 -31.264526c-0.979126 -1.2409668 -2.0126953 -2.4326859 -3.100769 -3.5751266l0 0c1.9955444 -3.0773544 4.1724854 -5.7281113 6.5308228 -7.952263c3.9873047 -3.7927704 9.264038 -7.066948 15.830261 -9.822533l0 0c-3.55719 7.5889664 -5.1414185 13.974609 -4.7527466 19.156906c0.4498291 5.9605026 2.4554443 10.440262 6.0167236 13.439247c3.598755 2.998993 7.5724487 4.498497 11.920959 4.498497c5.060791 0 9.371826 -1.8368912 12.933105 -5.5106583c3.598816 -3.7112503 5.3981934 -8.903259 5.3981934 -15.576027c0 -6.4478455 -1.9680786 -11.846039 -5.904236 -16.19458c-3.8986816 -4.3860283 -9.87793 -6.5790443 -17.937683 -6.5790443z" fill-rule="evenodd"/><path stroke="#1c4587" stroke-width="3.0" stroke-linejoin="round" stroke-linecap="butt" d="m1075.8574 62.17121c-12.445801 0 -23.335815 2.0243225 -32.670166 6.0729675c-9.334351 4.0111465 -16.756836 10.627686 -22.267517 19.849594l0 -24.854172c-8.5095825 1.611969 -17.78772 2.8303146 -27.83429 3.6550293c-10.009094 0.78723145 -20.768005 1.1808548 -32.27655 1.1808548c-6.897705 0 -14.039001 -0.3561325 -21.424011 -1.0683975l0 7.2538223c7.38501 0 12.445801 2.4741745 15.182373 7.422516c2.7740479 4.9483414 4.161072 12.614517 4.161072 22.998543l0 109.53831c0 9.671753 -1.4432373 16.232056 -4.329773 19.680908c-2.8865356 3.4488525 -7.8911133 5.1732635 -15.013672 5.1732635l0 7.2538147c5.060791 -0.22491455 12.53949 -0.506073 22.436157 -0.8434601c9.934082 -0.37486267 19.73706 -0.5623169 29.408752 -0.5623169c8.959473 0 17.69403 0.18745422 26.203613 0.5623169c8.54718 0.33738708 15.013733 0.61854553 19.39972 0.8434601l0 -7.2538147c-5.7730713 0 -9.87793 -1.724411 -12.314575 -5.1732635c-2.39917 -3.4488525 -3.598816 -10.009155 -3.598816 -19.680908l0 -109.20092c0 -4.8358765 1.199646 -9.146942 3.598816 -12.9331665c2.4366455 -3.8237228 5.5480957 -6.7664795 9.334351 -8.828293c3.8237305 -2.0618134 7.7973633 -3.0927124 11.920898 -3.0927124c4.161133 0 7.441284 0.80597687 9.840454 2.4179382c2.4366455 1.6119614 4.217285 4.029907 5.341919 7.2538223c1.1621094 3.223915 1.7431641 7.2538147 1.7431641 12.089699l0 112.29363c0 9.671753 -1.1433105 16.232056 -3.4300537 19.680908c-2.2867432 3.4488525 -6.429077 5.1732635 -12.427124 5.1732635l0 7.2538147c4.610962 -0.22491455 11.508667 -0.506073 20.692993 -0.8434601c9.221924 -0.37486267 18.668701 -0.5623169 28.340454 -0.5623169c8.996948 0 18.162598 0.18745422 27.496948 0.5623169c9.334351 0.33738708 16.288208 0.61854553 20.861694 0.8434601l0 -7.2538147c-7.1226807 0 -12.127197 -1.724411 -15.013672 -5.1732635c-2.8864746 -3.4488525 -4.329834 -10.009155 -4.329834 -19.680908l0 -93.624886c0 -11.771057 -0.8059082 -21.10543 -2.4178467 -28.00312c-1.6120605 -6.8976974 -4.142456 -12.427086 -7.5911865 -16.588196c-3.223877 -3.8986893 -7.8911133 -7.178833 -14.001587 -9.840454c-6.072876 -2.661602 -14.413818 -3.9924088 -25.022705 -3.9924088z" fill-rule="evenodd"/></g></svg>