<svg version="1.2" xmlns="http://www.w3.org/2000/svg" viewBox="0 0 262 196" width="262" height="196">
	<title>Vagabond_Robotics_Rev_01-ai</title>
	<style>
		.s0 { fill: #000000 } 
		.s1 { fill: #00691c } 
	</style>
	<g id="Layer 1">
		<g id="&lt;Group&gt;">
			<g id="&lt;Group&gt;">
				<path id="&lt;Compound Path&gt;" class="s0" d="m21.8 173.7h-4.1l-12.7-23.3h3.6l10.9 20.1h0.5l10.8-20.1h3.6z"/>
				<path id="&lt;Compound Path&gt;" fill-rule="evenodd" class="s0" d="m60.3 173.7l-2.7-5.2h-16.6l-2.7 5.2h-3.9l12.2-23.3h5.4l12.2 23.3zm-10.6-20.5h-0.8l-6.3 12.2h13.5z"/>
				<path id="&lt;Compound Path&gt;" class="s0" d="m80.2 174c-12 0-13.7-1.5-13.7-12 0-10.5 1.7-11.9 13.8-11.9 11.6 0 13.7 0.8 13.7 7.9h-3.4c0-4.6-1.2-4.8-10.3-4.8-10.1 0-10.3 0.3-10.4 8.9 0 8.5 0.3 8.8 10.4 8.8 9.5 0 10.3-0.2 10.3-6h-11.3v-3.1h14.7v3.1c0 8.1-2 9.1-13.8 9.1z"/>
				<path id="&lt;Compound Path&gt;" fill-rule="evenodd" class="s0" d="m123.9 173.7l-2.7-5.2h-16.6l-2.7 5.2h-3.9l12.2-23.3h5.4l12.2 23.3zm-10.6-20.5h-0.8l-6.3 12.2h13.5z"/>
				<path id="&lt;Compound Path&gt;" fill-rule="evenodd" class="s0" d="m149.1 173.7h-18.7v-23.3h17.8c4.8 0 7.4 2.4 7.4 6.6 0 2.2-0.8 3.8-2.5 4.5 1.7 0.6 3.4 2.2 3.4 5.4 0 4.6-2.7 6.8-7.4 6.8zm-0.1-10.4h-15.1v7.2h15.1c2.8 0 4-1.6 4-3.6 0-2.1-1.3-3.6-4-3.6zm3.2-6.3c0-1.9-0.9-3.5-3.9-3.5h-14.4v6.6h14.4c3.1 0 3.9-1.2 3.9-3.1z"/>
				<path id="&lt;Compound Path&gt;" fill-rule="evenodd" class="s0" d="m187.5 162c0 10.8-1.6 12-13.1 12-11.5 0-13.2-1.2-13.2-12 0-10.5 1.1-11.9 13.2-11.9 11.9 0 13 1.4 13 11.9zm-13.1 8.8c9.2 0 9.7-1 9.7-8.8 0-8.2-0.5-8.8-9.6-8.8-9.3 0-9.7 0.3-9.7 8.8 0 7.2 0.3 8.9 9.6 8.8z"/>
				<path id="&lt;Compound Path&gt;" class="s0" d="m216.1 173.7l-19.8-20.3v20.3h-3.4v-23.3h5l20 20.4v-20.4h3.4v23.3z"/>
				<path id="&lt;Compound Path&gt;" fill-rule="evenodd" class="s0" d="m255 162q0 0 0 0 0 0 0 0zm-8.2 11.6h-19.5v-23.2h19.5c4.7 0 8.2 0.4 8.2 11.6 0 11.2-3.5 11.6-8.2 11.6zm4.7-11.7c0-6.7-1-8.4-4.7-8.4h-16v17l16-0.1c3.7 0 4.7-1.7 4.7-8.4z"/>
			</g>
			<path id="&lt;Compound Path&gt;" fill-rule="evenodd" class="s1" d="m253.5 73.6c-2.6 4-20.7 3.3-24.5 1.5-3.8-1.7-5.7 0.4-5.7 0.4-19.1 16.2-99.7 40.7-99.7 40.7 0 0 11.9 17.9 14 21 2.1 3.1 1.7 4-1.6 4.7-3.2 0.7-19.8-24.2-19.8-24.2-5.3 1.8-53.1 6.4-71.9 9.4-18.8 2.9-40-11.9-31.9-36.6 7.2-22 15.8-17.4 17.6-16.1-0.7 3.5-1.9 12.4 2 16.8 5 5.5 14.7 8.4 16.9 8.4 2.3 0 7.3 1.1 7.3 1.1h1.7c0 0-4.5-5-5-5.7-0.5-0.7-2.6-1.9-2.2-1.1 0.3 0.9 3.6 2.1 1.2 2.1-2.4 0-5.5-3.1-5.5-3.1 0 0 0.5-1.5-0.2-1.7-0.7-0.2-17.9-4.5-16.2-16.8q0.3 0.2 0.3 0.2l3 2.7c5.7 1 13.1 9.1 13.1 9.1l2.9 2.3 1.2 0.5c0 0 6.7-7.9 7.4-9.5 0.7-1.5 2.2-7.5 2.4-9 0.3-1.6 1.7-4.3 1.4-5-0.2-0.8-0.8-2.2-1.4-2.5-0.6-0.4-1.8-0.2-2.2-0.4-0.4-0.2-1-1.4-1.1-1.7-0.1-0.4-1-2.6-1.4-3.5-0.4-0.8 0.1-3.3 1.2-4.2 1.1-0.9 5.8-2.3 5.8-2 0 0.4 2.2 0.9 2.5 2.3 0.2 1.4-0.5 2.1-0.5 2.1 0 0 1.3 0.9 1.8 1.2 0.4 0.4 0.9 1.4 0.9 1.4l3.4 0.4c0 0 2.1-1.1 4.1-1.5 2-0.4 2.6-1.5 3.3-2.7 0.7-1.2 4.6-9.1 4.6-9.1 0 0 0.1-1.8-0.8-4.2-1-2.3-0.4-2.4-0.4-2.4h0.9l0.6-2.1c2.6-0.9 4.3 2.4 4.3 2.4 0 0-0.3 1.4-0.4 3.4-0.1 2 0.1 1.8 0 3.1-0.1 1.2-0.5 2.4-0.9 3.4-0.3 1-3.3 7.4-3.7 8.5-0.3 1.2-1.3 0.6-2.2 1.8-1 1.3-2.3 3.9-2.3 5.1 0 1.1 6.2 8.7 6.2 8.7l3.4 1.1 5.4 2.1 0.3-1.6c0 0 1.3 0 0.9-0.5-0.4-0.4-2-2.5-2.1-2.7-0.2-0.3 0.3-4.2 0.3-4.2 0 0 3.1-1.9 3.3-1.8 0.1 0 1.9 0.1 3.7 0.3q-0.1-0.1-0.2-0.1c-1.1-0.6-3-2.8-4-3.3-0.9-0.5-0.9-2.1-0.9-2.1 0 0 2.8-2.7 3.7-3.5 1-0.8 2.7-0.2 2.7 1 0 1.2 1.7 2.3 2.1 2.5 0.4 0.3 3 2.4 4.1 2.5 1.2 0.1 4.4 1.3 4.4 1.3l2.6-0.6c0 0-1.2-0.9-1.6-1.2-0.4-0.3-1.1-0.7-1.5-0.9-0.5-0.3-0.9-1.2-1.1-1.5-0.2-0.3-2.4-0.9-2.9-2.3-0.4-1.5 1.4-5.7 6.2-6.1 4.7-0.5 6.8 1.8 6.8 1.8l-0.5 1.4 0.1 0.9 0.9 0.3 2.3 2.5c0 0 2.7 0.1 4.1 0.3 1.4 0.2 3.1 1.7 5 4.6 1.9 2.9 3.4 4.2 3.4 4.2 0 0-0.1 0.3 1.3-0.9 1.4-1.2 0.7-3.3 0.7-4.8 0-1.6-0.7-1.9-0.7-1.9l-1.4-1.6v-1.7l1.8-2.9 2.6 0.8-0.4 4-1.2 7.7 2.4-7 3.1-0.5c0 0 1.1 1.5 0.9 3.6-0.2 2.1 0.8 2.9 0.8 2.9l4 1 0.2-3.2h-1.2c0 0-1.2-0.5-1.4-1.2-0.2-0.7-1.9-3.1-2.2-3.8-0.4-0.7 0-1.6-0.4-2.3-0.3-0.7 0-2.4 0-2.4l2.1-1.5 3.6-2.3 3.5-0.3 0.1-1.4 0.9 1 0.8 0.2-0.8 1.4-0.2 2.4 0.5 3.1 5-1.6 1.2-1.3h1.1l-0.2 0.7 3.1 0.3 5.4 1.9c0 0 1-4 0.1-4.7-0.8-0.6-6.9-3.8-6.9-3.8l-1.7-1.8c0 0-1.6 0.5-2.4-2.3-0.9-2.8 0.8-3.8 2.2-4.5 1.4-0.7 2.3 0.4 2.6 1.2 0.4 0.9 1.2 3.1 1.2 3.1l5.5 2.8 0.7-1c0 0-0.8-0.4-1-2.1-0.2-1.7-1-2.9-1-2.9 0 0-0.6-1.1 0.1-2.5 0.7-1.3 3.8-3.6 6.4-3.8 2.6-0.1 2.9 0 4.7 0 1.7 0 0.7-1.3 0.7-1.3 0 0 1.9 0.1 1.9 1.2 0 1-3.5 2-4.5 2.2-1.1 0.2 0.7 5.4 0.7 5.4l3.4 3.9c0 0 1.6-0.8 2.8-1.3 1.2-0.6 0.5-1.9 0.7-3 0.1-1 1.9-3.9 2.6-4.8 0.6-0.9 3.7-2.1 3.7-2.1h2.1c0 0 1.2 0.4 2.6 0.4 1.4 0 2.1 0 4.1 2.2 2.1 2.3 0.7 2.8 0 4.1-0.6 1.4 0.2 3 0.2 3l5.9 3.9c0 0 2.6-5.5 1-7.2-1.5-1.7-2.7-0.7-2.7-0.7l-0.7-2.2-15.8-10.8c-1.3-0.1 0.2 0.1-1.7 0.1-2 0-1.7-1.1-2-1.7-0.4-0.7 1.4-3 2.9-4 1.6-1 3.1-1 5.7 0 2.6 1 5.2 0.5 5.2 0.5l-0.7-1.2c0 0-2.6-1.4-4.5-2.4-1.9-1.1-1.4-4.3 2.4-7.3 3.8-2.9 8.3 0 8.3 0l0.5 3.7c0 0 0.9-0.2 3.5-1.2 2.5-1.1 3.6-0.4 4.3 0.1 0.7 0.5 2.7 1.4 5 2.3 2.2 0.8 2.2 1.3 1.7 2.2-0.5 0.9-4.1 1.2-4.1 1.2 0 0 0.8 1.1 2 2.4 1.2 1.4 2.3 3.8 2.3 3.8 0 0 2.7-0.7 3.1-2.9 0.3-2.2-0.5-3.1-0.4-5.4 0.2-2.2 0.9-3.2 2.1-5.8 1.2-2.6 3.4 1.2 3.8 3.8 0.3 2.6-2.1 8.3-2.1 8.3l-5.5 3.1 2.1 0.3 5.5-0.7 1.7 0.7c0 0 0.9 1 0.2 2.9-0.7 1.9-0.4 1.6-0.4 3.8 0 2.3-0.6 4.7-3.2 5-2.6 0.4-3.1 0.9-3.1 0.9 0 0-3.3 0.2-4.3 1.2-1.1 1-3.3 5.4-3.3 5.4l0.8 1.2c0 0 1.1-0.6 1.4-1.1 0.4-0.5 7.3-2.9 8.8-3.8 1.6-0.8 4.5-0.5 5.4 1.4 0.8 1.9-2.6 7.3-2.6 7.3l-0.2 1.7 2.4-2.1c11.1-11.4 8.1-24.8 8.1-24.8 1.4-4.2 6.9-2.6 7.6 9.3 0.7 11.9-4.1 21.7-4.1 21.7 3.1 1.7 6.2 7.1 2.9 6.7-3.3-0.3-5.9-2.9-5.9-2.9l-12 10.2c0 0 27.4-0.9 24.8 3.1zm-62.6-33.6c0.8 0.1 3.9-1.2 7.2 1.1 0 0 0.9-2.5-7.6-2.8 0 0-0.4 1.7 0.4 1.7zm3.6 8.2c1.5 0.1 5-3.3 5-3.8 0-0.4-0.1-0.9-0.1-0.9l-0.4 0.6c0 0-2.4 2.8-5 2.4-2.6-0.4-5.6-4.8-5.6-4.8-0.9 5.6 4.6 6.5 6.1 6.5zm-80.7 13.3c2-3.4 4.6-5.1 4.6-5.1 0-0.6-0.9-0.7-0.9-0.7-3.8 2.3-3.9 5.5-3.9 5.5zm-0.7 9.4c0 0 1.8 1.9 2.1 1.9 0.3 0 2.8 2 3.1 2.4 0.4 0.4 1.6 1.4 1.6 1.4l2.4-0.1c0 0-2.4-2.5-3.1-3-0.7-0.6-2.1-3.7-2.1-3.7zm-4.4 2.2c-0.9 0.7-2.8 2.2-2.5 2.4 0.4 0.4 3.4 1.6 4.9 2.8 1.6 1.1 4-0.2 4.2-0.4 0.3-0.1 2.6-0.8 2.6-0.8 0 0-0.9-2.6-2.7-3.7-1.8-1.2-4.4-0.9-4.7-0.9l-1.2 0.2c0 0-0.2 0.1-0.6 0.4zm-5.7-5.9l0.9 1.1-0.2 3.8c0 0 0.7-1.1 1.1-1.8 0.4-0.7 2-2.4 2-2.4 0 0-2.6-0.2-3-0.4-0.1-0.1-0.4-0.2-0.8-0.3zm-36.7-5.3c0.4-0.4 0.9-0.6 0.5-1.3-0.4-0.6-1.4 0.7-2.8 0.7-1.4 0-3.4-2.6-3.4-2.6-0.6 4.4 5.3 3.6 5.7 3.2zm-8.6 20.3c0 0 3.1-3.6 3.6-5.8 0.5-2.2 2-3.5 4.9-2.2 2.8 1.3 8.1 9.1 11.6 8.8 3.5-0.2 7.8-6.8 7.8-6.8 0 0-4.5 6.2-8.4 3.8-3.9-2.3 4.4-3.2 2.3-9.9 0 0-3.5 7.9-6.5 7-2.9-0.9-5.4-2.4-6.4-4-1.1-1.7 1-3.8 1.5-5.7 0.5-2 0.8-3.5 0.8-3.5 0 0-2.6 5.9-4 7-1.4 1-0.3-3.4-0.1-5 0.1-1.5-1.3-1.6-2.2 0.3 0 0-0.4 3.5-0.8 5.6-0.4 2-1.9 4.9-2.2 6-0.3 1.2-1.9 4.4-1.9 4.4zm-3.1 12c0.9 1 4.3 2.7 4.3 2.7 0 0 1.9-2.2 1.9-3.6 0-1.5-1.9-3.5-1.9-3.5l4.2-5.2c0 0 1.7 1.4 2.6 1.4 0.8 0 3-2.2 3.5-3.3 0.5-1.2 0.6-1.5 0.6-1.5l-0.4-1.3-3.8-2.9c0 0-5.7 8.8-6.7 10.7-1.1 1.9-3.5 4.5-3.5 4.5l-1 0.8c0 0-0.6 0.3 0.2 1.2zm7.8 8.7c0 0-5.7-5.5-6.6-6.6-0.5-0.5-1-0.6-1.5-0.5zm43.3-0.8l-1.2-1.9c-9.2 1.1-41.5-0.1-41.5-0.1l0.1 1.1c6.2 2.1 42.6 0.9 42.6 0.9zm1.4-1.2l1.6-0.2-12.9-19.7h0.3l-0.5-0.3 0.2 0.3-1.2 0.3zm5.6 3.7c-0.3-1.1-1.2-2.2-1.2-2.2 0 0 2.1 1 2.3 1.6 0.3 0.5 0.6-0.2 0.3-1.4-0.4-1.2-1.7-2.7-1.7-2.7 0 0 1.8 1.6 1.7-0.8-0.1-2.4 0.2-3.8 0.9-5.4 0.8-1.6 1.1-2.6 0-4.1-1.1-1.4-3.1-0.5-3.7-2.5-0.6-1.9-1.9-2.6-1.9-2.6 0 0 0.2 3.5 3 5.8 2.7 2.4-0.6 5.4-0.6 6.8 0 1.3-0.5 3.4-1.4 4.2-1 0.8-3.1 2.1-2.5 3.7 0.6 1.5 3.8 2.5 3.8 2.2 0-0.2 1.3-1.6 1-2.6zm0.4 3.3c0 0 1.8 4.9 3.2 7.4 1.5 2.5 17.7 26.1 20.2 25.5zm23.5-25.9c0.2 0.4 4.2 0.8 4.2 0.8 0 0-3.4-1.7-3.6-1.9-0.3-0.2 0-4 0-6.2 0-2.3 1.7-3.4 1.7-3.4 0 0-1-1.3-2.6-1.1-1.6 0.2-2.8 2-3.7 2.6-0.9 0.6-5.6 3-6.9 3.9-1.3 1-5.2 2.7-6.9 3.8-1.7 1.2-0.5 3.4-0.6 5.5-0.1 2 2 6.8 2 6.8 0-0.2 0.6 2.8 2 3.9 1.5 1 1.2 2.6 1.6 3.8 0.3 1.1 3.6-0.1 3.6-0.1 0 0-2.7-0.8-2.9-2-0.2-1.2 3.9-1.6 4.6-2.5 0.8-0.9-4.6 0.4-5.1 0.1-0.6-0.4 3.5-1.3 3.2-1.6-0.2-0.2-5.9-0.7-5.9-1.4 0-0.8 5.2 0.5 4.7-0.1-0.6-0.6-1.9-2.1-2.8-3.4-0.9-1.3-1-4.1-0.9-5.7 0.1-1.5 6.2 0.3 5.9-0.2-0.3-0.4-3.7-2-3.7-2 0 0 3.9 1.4 5.2 1.3 1.4-0.1 3.3-2.4 3.1-4.2-0.1-1.7 1.4-4.4 1.7-4.4 0.2 0 0.5 3.1 0.5 4.8 0 1.7-0.7 2.7-0.6 5 0.1 2.2 1.7 1.4 2.7 1.1 0.9-0.3-0.8-3.5-0.5-3.2zm11.9 10.8c0 0 2.6-1.3 4-2.8 1.4-1.4 0.1-2.6-1.3-3.9 0 0-2.2-0.3-4.5 2.7-2.2 3-3.7 2.7-3.7 2.7 0 0 4.3 2.5 2.5 4.8 0 0 8.8-2.1 9.3-4.6 0.6-2.5-3.1 0.8-6.3 1.1zm12.5-17.3c0 0-11.4-2.7-11.7-2.5l-0.4 1 11.1 2.3zm3.9 1.1c-2.6-1-0.4-2.1-0.4-2.1 0 0-4.5 1.6-3.2 3 1.3 1.4 5.8 1.8 5.8 1.8 0 0 0.4-1.6-2.2-2.7zm4-1c0 0-1.8-2.8-0.2-2.8 1.6-0.1 3.8 1 3.9 0.2 0.1-0.8-4.3-2.3-1.7-2.7 2.6-0.3 5.8-2.3 4.9-3.4-0.8-1.1-9-0.3-6.2-1.5 2.7-1.2 6-2 1.8-2.7-4.3-0.8-8.7 1.4-6.9 0 1.9-1.5 5.7-2.2 3.8-2.7-1.8-0.5-4.9 0.1-5.9 0.9 0 0-2.2 2.5 0.8 4.1 2.9 1.6 6.2 1.3 6.4 3.8 0.1 2.5-2.5 3.3-3.9 4.4-1.5 1.1 3.2 2.4 3.2 2.4zm34.8 8.3c0 0-1.4 0.5-13.5-1-12.2-1.6-16.6-3.5-20.6-5.4 0 0 2.6 4.4 14.1 6.3 11.5 1.9 19.1 4.4 20 0.1zm-2.5-70.5c1.5-0.1 1.8-0.1 1.8-0.1 0 0-0.4-1.7-4.3-0.1-3.9 1.5-4.1 2.5-4.1 2.5 0 0 0.5 2 1 1.8 0.5-0.3 4.1-4 5.6-4.1zm6.1 19.8c-0.7-1.2-3.3-4-3.3-4 0 0-0.8 0-1.3-0.2-0.6-0.1-1.8-1.9-1.8-1.9 0 0-4.4-0.1-5.5-0.1-0.7 0-2.2-0.1-3.8-0.2l13.1 8.6h2.8c0 0 0.5-1-0.2-2.2zm11.4-6.6c0 0-8.2 3.7-10.8 2.8 0 0 5.5-0.4 7.9-5.1 0 0-8.7 5-11.1 2.8-0.1-0.3-0.1-0.6-0.1-0.6l-0.3 0.2q0.2 0.2 0.4 0.4c0 0.9 0.6 2.9 3.2 3.5 3.6 0.9 10.8-4 10.8-4zm-6.9 11.6c1.6 0 4.2-1.9 5.7-1.1 1.5 0.7 3.5 1.2 3.5 1.2 0 0-3.1-1.9-2.8-3.7 0.2-1.9 1.7-1.2 2-6.3 0 0-2.8 1.7-4.5 5.3-1.7 3.6-5.3 3.5-5.3 3.5 0 0-0.2 1.1 1.4 1.1zm7.6 26.7c0 0 27.1-11.8 22.3-38.6q0-0.1 0-0.2 0 0.1 0 0.2c0.4 2.8 2.2 22.8-22.3 36.8zm22.2-38.9q0 0 0.1 0.1 0-0.1-0.1-0.1zm-17.7 46.5h-6.2l0.5 1.3h5.7zm9.5-1.3c-7 0.7-8.4 2-8.4 2 17-1.2 24.4 1.4 25.7 0.1 1.3-1.3-10.3-2.7-17.3-2.1z"/>
			<g id="&lt;Group&gt;">
				<path id="&lt;Compound Path&gt;" fill-rule="evenodd" class="s1" d="m70.2 192.6l-2.3-3.2q-0.4 0-0.8 0h-2.6v3.2h-1.1v-9.9h3.7q1.9 0 3 0.9 1.1 0.9 1.1 2.5 0 1.1-0.6 1.9-0.6 0.8-1.7 1.2l2.4 3.4zm-0.8-4.7q0.8-0.6 0.8-1.8 0-1.2-0.8-1.8-0.8-0.7-2.3-0.7h-2.6v4.9h2.6q1.5 0 2.3-0.6z"/>
				<path id="&lt;Compound Path&gt;" fill-rule="evenodd" class="s1" d="m83.9 192q-1.2-0.7-1.9-1.8-0.7-1.1-0.7-2.6 0-1.4 0.7-2.5 0.7-1.2 1.9-1.8 1.1-0.7 2.6-0.7 1.5 0 2.6 0.7 1.2 0.6 1.9 1.8 0.7 1.1 0.7 2.5 0 1.5-0.7 2.6-0.7 1.1-1.9 1.8-1.1 0.6-2.6 0.6-1.5 0-2.6-0.6zm4.7-0.8q1-0.5 1.5-1.5 0.5-0.9 0.5-2.1 0-1.1-0.5-2.1-0.5-0.9-1.5-1.4-0.9-0.5-2.1-0.5-1.2 0-2.1 0.5-1 0.5-1.5 1.4-0.5 1-0.5 2.1 0 1.2 0.5 2.1 0.5 1 1.5 1.5 0.9 0.5 2.1 0.5 1.2 0 2.1-0.5z"/>
				<path id="&lt;Compound Path&gt;" fill-rule="evenodd" class="s1" d="m110.3 188.3q0.5 0.6 0.5 1.6 0 1.3-0.9 2-1 0.7-2.8 0.7h-4.5v-9.9h4.2q1.7 0 2.6 0.7 0.9 0.6 0.9 1.8 0 0.9-0.4 1.4-0.4 0.6-1.1 0.9 1 0.2 1.5 0.8zm-6.7-4.7v3.5h3.2q1.2 0 1.8-0.4 0.7-0.5 0.7-1.3 0-0.9-0.7-1.4-0.6-0.4-1.8-0.4zm5.4 7.7q0.7-0.5 0.7-1.5 0-1.8-2.7-1.8h-3.4v3.7h3.4q1.4 0 2-0.4z"/>
				<path id="&lt;Compound Path&gt;" fill-rule="evenodd" class="s1" d="m123.4 192q-1.2-0.7-1.8-1.8-0.7-1.1-0.7-2.6 0-1.4 0.7-2.5 0.6-1.2 1.8-1.8 1.2-0.7 2.7-0.7 1.5 0 2.6 0.7 1.2 0.6 1.9 1.8 0.7 1.1 0.7 2.5 0 1.5-0.7 2.6-0.7 1.1-1.9 1.8-1.1 0.6-2.6 0.6-1.5 0-2.7-0.6zm4.8-0.8q0.9-0.5 1.5-1.5 0.5-0.9 0.5-2.1 0-1.1-0.5-2.1-0.6-0.9-1.5-1.4-0.9-0.5-2.1-0.5-1.2 0-2.1 0.5-1 0.5-1.5 1.4-0.6 1-0.6 2.1 0 1.2 0.6 2.1 0.5 1 1.5 1.5 0.9 0.5 2.1 0.5 1.2 0 2.1-0.5z"/>
				<path id="&lt;Compound Path&gt;" class="s1" d="m143.9 183.6h-3.4v-0.9h7.9v0.9h-3.4v9h-1.1z"/>
				<path id="&lt;Compound Path&gt;" class="s1" d="m158.7 182.7h1v9.9h-1z"/>
				<path id="&lt;Compound Path&gt;" class="s1" d="m173.2 192q-1.2-0.7-1.9-1.8-0.6-1.1-0.6-2.6 0-1.4 0.6-2.5 0.7-1.2 1.9-1.8 1.2-0.7 2.6-0.7 1.1 0 2 0.4 1 0.4 1.6 1.1l-0.6 0.6q-1.2-1.1-3-1.1-1.1 0-2.1 0.5-0.9 0.5-1.5 1.5-0.5 0.9-0.5 2 0 1.2 0.5 2.1 0.6 0.9 1.5 1.5 1 0.5 2.1 0.5 1.8 0 3-1.2l0.6 0.7q-0.6 0.7-1.6 1.1-0.9 0.3-2 0.3-1.5 0-2.6-0.6z"/>
				<path id="&lt;Compound Path&gt;" class="s1" d="m190.8 192.3q-1-0.4-1.6-0.9l0.4-0.8q0.6 0.5 1.5 0.8 0.8 0.4 1.8 0.4 1.3 0 2-0.5 0.6-0.5 0.6-1.3 0-0.6-0.3-0.9-0.4-0.4-0.9-0.6-0.5-0.2-1.5-0.4-1.1-0.3-1.7-0.5-0.7-0.3-1.2-0.8-0.4-0.6-0.4-1.5 0-0.7 0.4-1.3 0.4-0.6 1.2-1 0.8-0.4 2-0.4 0.8 0 1.6 0.3 0.9 0.2 1.4 0.6l-0.3 0.8q-0.6-0.4-1.3-0.6-0.7-0.2-1.4-0.2-1.3 0-2 0.5-0.6 0.5-0.6 1.3 0 0.6 0.4 0.9 0.3 0.4 0.9 0.6 0.5 0.2 1.4 0.4 1.1 0.3 1.8 0.5 0.6 0.3 1.1 0.8 0.5 0.6 0.5 1.5 0 0.7-0.4 1.3-0.4 0.6-1.3 1-0.8 0.3-2 0.3-1.1 0-2.1-0.3z"/>
			</g>
		</g>
	</g>
</svg>