<?xml version="1.0" standalone="no"?>
<!DOCTYPE svg PUBLIC "-//W3C//DTD SVG 20010904//EN"
 "http://www.w3.org/TR/2001/REC-SVG-20010904/DTD/svg10.dtd">
<svg version="1.0" xmlns="http://www.w3.org/2000/svg"
 width="1000.000000pt" height="1000.000000pt" viewBox="0 0 1000.000000 1000.000000"
 preserveAspectRatio="xMidYMid meet">
<metadata>
Created by potrace 1.14, written by Peter Selinger 2001-2017
</metadata>
<g transform="translate(0.000000,1000.000000) scale(0.100000,-0.100000)"
fill="#000000" stroke="none">
<path d="M4721 9392 c-46 -86 -144 -267 -216 -402 -73 -135 -157 -292 -188
-350 -157 -296 -175 -325 -211 -355 -34 -27 -45 -30 -111 -30 -80 0 -69 -5
-455 194 -96 50 -176 89 -178 87 -3 -4 67 -382 254 -1366 47 -250 91 -487 96
-526 15 -99 4 -158 -35 -200 -45 -49 -90 -54 -160 -20 -51 25 -63 36 -263 262
-12 14 -163 182 -335 375 l-313 350 -67 -234 c-71 -251 -85 -286 -122 -310
-67 -44 -63 -44 -625 74 -288 60 -527 108 -529 105 -3 -3 65 -261 151 -574 86
-313 159 -590 162 -615 8 -56 -8 -100 -45 -126 -14 -10 -116 -59 -226 -110
-110 -51 -201 -94 -203 -96 -1 -1 279 -231 623 -511 467 -379 627 -514 631
-533 3 -15 20 -85 37 -156 l33 -131 -78 -43 c-106 -59 -205 -145 -300 -260
-171 -206 -272 -397 -312 -594 -24 -116 -21 -132 14 -71 54 95 167 172 305
208 95 24 231 35 490 39 l240 4 63 -81 c35 -45 94 -114 131 -155 l68 -74 -38
-51 c-201 -264 -275 -844 -146 -1149 18 -42 31 -50 21 -13 -9 38 15 135 50
201 65 126 227 253 501 395 77 40 166 90 197 111 31 22 61 39 66 39 5 0 42
-15 83 -34 41 -18 121 -51 177 -72 l104 -38 -6 -30 c-17 -86 -18 -254 -2 -342
51 -296 192 -594 358 -757 69 -68 95 -82 64 -35 -48 73 -59 208 -26 327 33
117 93 231 225 426 67 99 137 209 154 243 l31 62 48 1 c26 0 67 2 92 5 81 8
205 25 221 30 11 3 20 -10 33 -53 26 -86 99 -230 151 -298 61 -81 236 -256
314 -315 137 -103 313 -191 412 -206 l44 -7 -42 32 c-161 118 -208 358 -154
774 12 87 21 200 21 252 l0 93 48 28 c26 15 95 59 153 99 l105 72 66 -62 c125
-119 240 -184 443 -250 253 -83 515 -104 697 -54 l43 11 -74 19 c-90 23 -153
62 -225 140 -92 99 -157 223 -252 478 -30 79 -74 182 -99 227 l-45 83 49 79
c27 43 67 115 90 159 l40 81 75 -24 c157 -49 318 -57 513 -24 213 36 366 89
514 177 74 44 174 122 166 129 -2 2 -23 -2 -46 -11 -181 -63 -402 28 -691 286
-63 56 -136 119 -163 140 l-47 38 132 108 c73 60 335 273 582 473 l448 364
-38 18 c-22 10 -120 56 -219 102 -212 99 -230 115 -222 204 3 30 76 310 162
623 86 314 155 573 152 576 -3 2 -234 -44 -514 -103 -279 -59 -527 -107 -551
-107 -48 1 -109 36 -130 74 -7 13 -43 131 -80 262 l-68 238 -70 -78 c-39 -43
-131 -145 -204 -228 -143 -161 -219 -246 -376 -420 -54 -61 -123 -138 -153
-173 -146 -169 -311 -135 -311 64 0 23 45 282 100 575 56 294 137 725 181 958
44 233 78 425 76 428 -2 2 -82 -38 -178 -87 -366 -191 -375 -195 -455 -195
-118 0 -118 1 -316 375 -34 63 -64 120 -68 125 -4 6 -31 55 -60 110 -29 55
-99 186 -155 290 -56 105 -126 236 -156 292 -30 57 -56 103 -59 103 -3 0 -43
-71 -89 -158z m2559 -3398 c55 -16 116 -50 138 -77 11 -13 2 -24 -63 -77 l-75
-62 -32 27 c-78 65 -196 101 -256 76 -46 -19 -67 -73 -52 -136 14 -61 69 -106
171 -140 175 -58 232 -93 269 -165 79 -158 -35 -398 -234 -491 -122 -57 -232
-55 -353 6 -40 21 -73 40 -73 43 0 5 39 51 102 119 l38 43 59 -40 c99 -67 188
-87 250 -55 85 43 79 235 -9 280 -16 8 -62 27 -102 41 -224 81 -312 167 -312
304 0 141 108 257 284 306 64 18 187 17 250 -2z m-4879 -94 c1 -55 3 -104 4
-110 1 -5 3 -82 4 -170 l1 -159 253 5 c138 3 275 10 303 15 83 16 90 30 98
189 3 74 9 177 13 229 l6 93 111 -7 c61 -4 114 -10 118 -13 4 -4 1 -129 -7
-277 -8 -149 -15 -381 -15 -516 l0 -247 -102 -4 c-57 -3 -110 -7 -118 -9 -13
-3 -15 29 -18 238 l-2 241 -198 -4 c-108 -3 -251 -7 -318 -10 l-120 -6 -10
-219 c-6 -120 -12 -220 -15 -222 -2 -3 -53 -7 -114 -10 l-110 -5 0 461 c0 254
-4 494 -8 534 l-7 72 87 4 c49 1 105 4 126 5 l37 2 1 -100z m1752 94 c3 -4
-13 -31 -36 -60 l-42 -54 -162 0 -163 0 0 -180 0 -180 99 0 c55 0 134 5 176
11 42 6 79 8 82 6 2 -3 -8 -32 -24 -64 l-28 -58 -151 4 -151 3 -7 -163 c-4
-90 -10 -179 -13 -198 l-6 -34 199 6 c109 3 207 9 216 12 32 13 32 -23 0 -72
l-31 -47 -312 2 c-172 2 -314 4 -316 6 -1 1 4 36 11 77 40 211 47 728 13 879
-8 36 -17 72 -19 80 -3 13 27 15 227 12 127 -1 266 2 310 7 110 11 121 12 128
5z m400 -1 c3 -5 1 -102 -3 -218 -5 -115 -11 -316 -15 -445 -3 -129 -8 -245
-11 -257 -4 -22 -2 -23 78 -23 99 0 188 13 282 41 52 15 71 18 76 9 4 -7 -9
-49 -30 -93 l-38 -81 -289 -1 c-158 -1 -299 -4 -313 -6 -29 -5 -29 0 -3 81 16
49 18 104 18 520 l1 465 109 6 c61 3 115 6 122 7 6 1 14 -1 16 -5z m1800 -31
c172 -80 277 -275 277 -513 0 -118 -23 -199 -79 -285 -104 -160 -274 -249
-471 -247 -180 1 -312 53 -426 167 -76 76 -113 141 -139 241 -19 73 -19 223
-1 291 44 167 192 298 398 353 107 29 112 30 248 27 118 -2 129 -4 193 -34z
m-1030 21 c2 -5 0 -57 -5 -118 -10 -127 -13 -807 -3 -877 5 -36 3 -49 -7 -52
-7 -2 -62 -7 -122 -10 l-109 -6 7 123 c4 67 9 304 12 527 l5 405 77 6 c129 9
141 9 145 2z m-702 -1431 c111 -71 157 -288 110 -518 -10 -50 -32 -117 -47
-150 -28 -56 -34 -62 -129 -116 -111 -64 -122 -65 -191 -18 -118 82 -156 174
-156 380 -1 151 16 243 58 319 31 58 46 68 164 102 122 35 137 35 191 1z m628
13 c50 -25 100 -94 124 -170 18 -58 22 -92 21 -195 -2 -137 -23 -238 -68 -328
-23 -45 -35 -55 -123 -103 -54 -30 -104 -55 -111 -57 -18 -5 -91 40 -136 85
-79 78 -113 209 -102 388 10 170 52 296 109 327 29 16 205 66 235 67 13 1 36
-6 51 -14z m714 -5 c14 -12 40 -49 57 -83 40 -83 50 -178 25 -262 -32 -111
-130 -285 -261 -462 l-54 -73 -38 19 c-20 10 -56 24 -79 31 l-42 13 44 49 c58
65 158 198 153 204 -3 2 -30 -1 -60 -7 -71 -14 -116 5 -164 70 -110 152 -72
367 83 462 49 30 163 57 244 58 52 1 72 -3 92 -19z m-1899 -9 c3 -5 -3 -33
-13 -62 l-18 -54 -139 -6 c-76 -4 -142 -7 -146 -8 -5 0 -8 -22 -9 -48 0 -27
-4 -70 -8 -96 -4 -26 -5 -46 -2 -45 39 21 126 58 135 58 32 0 90 -25 120 -50
77 -68 105 -225 57 -322 -28 -58 -121 -144 -196 -183 -49 -24 -63 -27 -120
-23 -44 4 -78 14 -107 31 -42 25 -95 74 -87 80 2 2 31 22 63 45 l59 42 31 -25
c38 -31 104 -64 129 -65 49 0 82 44 92 126 9 63 -8 126 -45 167 -26 29 -34 32
-87 32 -43 0 -72 -7 -114 -27 -31 -16 -60 -28 -64 -28 -8 0 2 351 12 408 l5
32 137 1 c75 1 165 7 201 14 83 16 108 17 114 6z"/>
<path d="M5960 5901 c-105 -34 -172 -121 -206 -268 -18 -79 -20 -233 -4 -295
43 -157 180 -281 353 -318 105 -23 183 22 236 133 43 93 56 158 54 287 -1 170
-47 287 -145 376 -77 69 -213 110 -288 85z"/>
<path d="M4425 4448 c-31 -69 -65 -238 -65 -325 0 -130 48 -256 110 -288 27
-14 30 -14 49 11 42 54 77 234 68 359 -7 104 -40 204 -84 255 -19 22 -39 40
-44 40 -6 0 -21 -24 -34 -52z"/>
<path d="M5086 4478 c-55 -85 -93 -362 -66 -479 23 -101 100 -198 134 -170 51
43 96 274 78 406 -13 99 -45 186 -84 231 -35 40 -43 41 -62 12z"/>
<path d="M5724 4465 c-53 -55 -79 -133 -71 -210 9 -84 46 -142 119 -188 l28
-17 24 47 c62 124 76 246 36 328 -19 40 -65 85 -86 85 -4 0 -27 -20 -50 -45z"/>
<path d="M8310 4909 c-196 -17 -372 -111 -493 -263 l-31 -39 49 28 c28 16 55
32 60 35 23 16 148 61 210 75 92 22 216 21 290 -3 199 -62 263 -211 122 -283
-80 -42 -219 -27 -392 43 l-70 28 81 -78 c158 -149 318 -218 535 -229 126 -7
202 5 343 54 192 66 340 157 452 275 36 39 64 72 62 73 -2 2 -28 -8 -58 -23
-133 -65 -326 -16 -600 153 -47 29 -108 64 -136 78 -117 59 -278 88 -424 76z"/>
<path d="M1280 4558 c-145 -15 -243 -53 -382 -144 -113 -75 -237 -189 -308
-282 -80 -106 -163 -284 -94 -203 14 17 54 45 90 62 54 27 79 33 159 37 113 6
194 -6 404 -60 137 -35 170 -40 271 -40 315 0 567 160 690 440 l21 47 -58 -56
c-118 -113 -240 -191 -353 -223 -129 -37 -275 -14 -343 55 -36 36 -39 43 -34
80 7 52 51 99 121 131 47 21 65 23 214 23 89 0 162 1 162 2 0 8 -166 84 -222
101 -100 31 -224 42 -338 30z"/>
<path d="M7525 3599 c-64 -8 -166 -39 -222 -67 -31 -17 -29 -17 110 -17 159
-1 236 -16 347 -68 77 -36 166 -121 198 -188 87 -180 -89 -257 -285 -125 -21
14 -75 63 -121 108 l-84 83 26 -68 c79 -211 209 -365 396 -470 195 -110 549
-137 799 -62 66 19 161 60 161 68 0 1 -30 2 -68 2 -150 1 -292 115 -471 378
-112 164 -163 223 -246 283 -162 115 -353 166 -540 143z"/>
<path d="M2667 3135 c-10 -33 -41 -106 -68 -162 -88 -178 -217 -293 -363 -323
-71 -15 -116 -7 -156 26 -25 22 -30 33 -30 73 0 109 107 211 313 298 l82 34
-130 -5 c-153 -6 -219 -22 -340 -81 -181 -89 -296 -203 -393 -392 -108 -210
-168 -485 -132 -603 7 -24 7 -24 14 10 12 56 77 141 143 186 88 60 190 99 408
153 238 60 319 99 438 211 152 142 226 295 235 485 6 142 1 165 -21 90z"/>
<path d="M6418 2521 c261 -128 404 -302 404 -491 1 -196 -157 -216 -281 -36
-37 54 -84 169 -102 251 l-14 60 -11 -65 c-15 -88 -10 -262 10 -335 44 -164
113 -284 225 -395 181 -178 487 -321 686 -320 l60 1 -37 18 c-65 33 -96 60
-136 121 -67 99 -100 220 -128 464 -20 178 -44 271 -95 365 -126 235 -336 378
-580 397 l-84 6 83 -41z"/>
<path d="M3755 2320 c37 -178 19 -372 -47 -504 -43 -85 -167 -186 -231 -186
-34 0 -74 29 -92 66 -42 89 3 226 127 380 l67 84 -62 -31 c-231 -117 -390
-310 -453 -554 -22 -85 -24 -329 -5 -445 24 -137 88 -310 141 -377 17 -22 17
-20 12 46 -10 142 58 265 240 433 243 224 290 275 341 378 62 123 87 225 87
350 0 143 -49 307 -120 400 -18 24 -18 24 -5 -40z"/>
<path d="M5088 2116 c163 -186 238 -438 181 -609 -83 -249 -289 -181 -289 96
0 71 17 197 36 262 10 35 -86 -107 -122 -180 -73 -150 -100 -346 -69 -510 50
-266 277 -590 497 -710 l51 -28 -31 39 c-17 21 -40 68 -52 104 -41 121 -17
270 86 532 68 175 85 248 86 363 2 219 -67 397 -208 539 -44 44 -172 136 -189
136 -4 0 6 -15 23 -34z"/>
</g>
</svg>
